<svg xmlns="http://www.w3.org/2000/svg" viewBox="0 0 64 64" id="customer-service"><g data-name="26. Support"><path fill="#f8cf6d" d="m50.45 24.11-4.11-2 2.36-7.35a1 1 0 0 0-.65-1.25l-.95-.31a1 1 0 0 0-1.26.65l-4.27 13.3a1 1 0 0 0 .65 1.26l1 .3a1 1 0 0 0 1.26-.64L45.73 24 49 25.62V33h-5a1 1 0 0 0 0 2h6a1 1 0 0 0 1-1v-9a1 1 0 0 0-.55-.89Z"></path><path fill="#ee7231" d="M27 33h12v2H27z"></path><rect width="36" height="5" x="24" y="35" fill="#2f79f0" rx="1"></rect><path fill="#0c3798" d="M55 64h-4l-1-24h6l-1 24zM33 64h-4l-1-24h6l-1 24z"></path><circle cx="19" cy="8" r="7" fill="#88b8f9"></circle><path fill="#2f79f0" d="m22.29 13.49-2.17-.81L20 8.17l2.38-6.38a1 1 0 1 0-1.88-.7l-2.44 6.56a1.52 1.52 0 0 0 0 .21A.76.76 0 0 0 18 8l.13 5.36a1 1 0 0 0 .65.91l2.82 1a1 1 0 0 0 .35.06 1 1 0 0 0 .34-1.94Z"></path><circle cx="19" cy="8" r="3" fill="#0c3798"></circle><path fill="#88b8f9" d="M31.49 34.21a2.49 2.49 0 0 1-2.7 2.28l-12-1a2.49 2.49 0 0 1-2.17-1.72v-.11l-3.53-9.88A3 3 0 1 1 16.78 22a2.27 2.27 0 0 1 .06.25L19 30.66l10.18.85a2.49 2.49 0 0 1 2.31 2.7Z"></path><path fill="#88b8f9" d="m31.32 23.12-8 5a2.52 2.52 0 0 1-2.21.22L21 29.82l-1.19-.1-2-7.73a1.12 1.12 0 0 0-.06-.23v-.12a4 4 0 0 0-3.82-2.78A4 4 0 0 0 10.36 21a4 4 0 0 0-.24 3.09l3.51 9.81v.15a3.47 3.47 0 0 0 3 2.41l3.76.31-.37 4.92L23 48.66l.06.14a3.15 3.15 0 0 1 .11 2.07l-3.3 10.92a3 3 0 0 1-5.78-1.58l2.41-9.86L13.07 43H11q-.45 9-1 18.09a3 3 0 0 1-6-.18V43s.28-5.51.72-7.89L6.91 23a7.3 7.3 0 0 1 14.25-.53L22 23l6.65-4.16a2.5 2.5 0 1 1 2.64 4.24Z"></path><path fill="#ee7231" d="M42 2v6a2 2 0 0 1-2 2H30l-1.54 1.54a.27.27 0 0 1-.46-.18V2a2 2 0 0 1 2-2h10a2 2 0 0 1 2 2Z"></path><circle cx="35" cy="5" r="1" fill="#fffeff"></circle><circle cx="39" cy="5" r="1" fill="#fffeff"></circle><circle cx="31" cy="5" r="1" fill="#fffeff"></circle></g></svg>