<svg xmlns="http://www.w3.org/2000/svg" width="64" height="64" enable-background="new 0 0 64 64" viewBox="0 0 64 64" id="education-window"><polygon fill="#FFF" points="51.005 34.035 13.025 34.035 13.025 59.995 51.015 59.995 51.015 34.035"></polygon><path fill="#D7E9FF" d="M51.005,33.015v1.021H13.025h-0.011v-2c0-1.11,0.89-2,2-2h33.99c1.1,0,2,0.89,2,2V33.015z"></path><polygon fill="#94C1FF" points="62.985 12.005 51.005 15.105 32.005 20.015 13.015 15.105 1.015 12.005 32.005 4.005"></polygon><rect width="28" height="3" x="18.015" y="39.005" fill="#94C1FF"></rect><path fill="#5C9EFF" d="M51.005,15.105v16.93c0-1.11-0.9-2-2-2h-33.99c-1.11,0-2,0.89-2,2h-0.01l0.01-16.93l18.99,4.909
			L51.005,15.105z"></path><g><path fill="#116FFF" d="M16.026 33.027c-.553 0-1.005-.447-1.005-1s.442-1 .994-1h.011c.552 0 1 .447 1 1S16.578 33.027 16.026 33.027zM19.026 33.027c-.553 0-1.005-.447-1.005-1s.442-1 .994-1h.011c.552 0 1 .447 1 1S19.578 33.027 19.026 33.027zM22.026 33.027c-.553 0-1.005-.447-1.005-1s.442-1 .994-1h.011c.552 0 1 .447 1 1S22.578 33.027 22.026 33.027zM51.004 60.996c-.553 0-1-.447-1-1V35.027h-35.99v24.969c0 .553-.447 1-1 1s-1-.447-1-1V34.027c0-.553.447-1 1-1h37.99c.553 0 1 .447 1 1v25.969C52.004 60.549 51.557 60.996 51.004 60.996z"></path><path fill="#116FFF" d="M12.996,33.027c-0.553,0-1-0.447-1-1c0-1.654,1.346-3,3-3c0.553,0,1,0.447,1,1s-0.447,1-1,1
				c-0.552,0-1,0.448-1,1C13.996,32.58,13.549,33.027,12.996,33.027z"></path><path fill="#116FFF" d="M12.996 35.027c-.553 0-1-.447-1-1v-2c0-.553.447-1 1-1s1 .447 1 1v2C13.996 34.58 13.549 35.027 12.996 35.027zM50.986 33.027c-.553 0-1-.447-1-1 0-.552-.448-1-1-1-.553 0-1-.447-1-1s.447-1 1-1c1.654 0 3 1.346 3 3C51.986 32.58 51.539 33.027 50.986 33.027z"></path><path fill="#116FFF" d="M50.986 35.027c-.553 0-1-.447-1-1v-2c0-.553.447-1 1-1s1 .447 1 1v2C51.986 34.58 51.539 35.027 50.986 35.027zM48.986 31.027h-33.99c-.553 0-1-.447-1-1s.447-1 1-1h33.99c.553 0 1 .447 1 1S49.539 31.027 48.986 31.027z"></path><g><path fill="#116FFF" d="M31.985,21.008c-0.084,0-0.168-0.011-0.25-0.032L0.751,12.974c-0.441-0.113-0.75-0.512-0.75-0.968
				s0.309-0.854,0.75-0.968l30.984-8.002c0.164-0.043,0.336-0.043,0.5,0l30.998,8.002c0.441,0.113,0.75,0.512,0.75,0.968
				s-0.309,0.854-0.75,0.968l-30.998,8.002C32.153,20.997,32.069,21.008,31.985,21.008z M5,12.006l26.985,6.969l26.997-6.969
				L31.985,5.037L5,12.006z"></path><path fill="#116FFF" d="M12.994 34.016L12.994 34.016c-.553 0-1-.448-1-1L12 15.105c0-.553.448-1 1-1l0 0c.553 0 1 .448 1 1l-.006 17.91C13.994 33.568 13.546 34.016 12.994 34.016zM50.99 34.016c-.553 0-1-.447-1-1V15.1c0-.553.447-1 1-1s1 .447 1 1v17.916C51.99 33.568 51.543 34.016 50.99 34.016zM62.999 23.02c-.553 0-1-.447-1-1V12.006c0-.553.447-1 1-1s1 .447 1 1V22.02C63.999 22.572 63.552 23.02 62.999 23.02z"></path><path fill="#116FFF" d="M62.97,13.006H31.972c-0.553,0-1-0.447-1-1s0.447-1,1-1H62.97c0.553,0,1,0.447,1,1
				S63.522,13.006,62.97,13.006z"></path></g><g><path fill="#116FFF" d="M51.004,60.996h-37.99c-0.553,0-1-0.447-1-1s0.447-1,1-1h37.99c0.553,0,1,0.447,1,1
			S51.557,60.996,51.004,60.996z"></path></g><g><path fill="#116FFF" d="M46.004 47.008H17.996c-.553 0-1-.447-1-1s.447-1 1-1h28.008c.553 0 1 .447 1 1S46.557 47.008 46.004 47.008zM46.004 50.008H17.996c-.553 0-1-.447-1-1s.447-1 1-1h28.008c.553 0 1 .447 1 1S46.557 50.008 46.004 50.008zM46.004 53.006H17.996c-.553 0-1-.447-1-1s.447-1 1-1h28.008c.553 0 1 .447 1 1S46.557 53.006 46.004 53.006zM32 56.006H17.996c-.553 0-1-.447-1-1s.447-1 1-1H32c.553 0 1 .447 1 1S32.553 56.006 32 56.006zM46.004 43.004H17.996c-.553 0-1-.447-1-1v-3c0-.553.447-1 1-1h28.008c.553 0 1 .447 1 1v3C47.004 42.557 46.557 43.004 46.004 43.004zM18.996 41.004h26.008v-1H18.996V41.004z"></path></g></g></svg>