<svg xmlns="http://www.w3.org/2000/svg" width="540" height="540" id="financial-investor"><path fill="#5C77FF" d="M534.045 357.99v23.881c0 .34-.01.68-.04 1.01 0 .08 0 .16-.01.24-.029.289-.06.568-.1.85-.01.129-.03.27-.061.4-.02.17-.05.33-.09.5a5.6 5.6 0 0 1-.139.638c-.08.32-.17.65-.271.98-.1.34-.22.66-.34.971-.14.369-.3.75-.479 1.129-.15.33-.3.641-.471.939-.13.25-.279.512-.439.771 0 .01-.05.09-.061.1-.59.99-1.3 1.959-2.1 2.891-.21.25-.43.51-.69.77-.21.24-.43.459-.649.689-.33.33-.66.65-1.01.961l-.13.129c-.15.131-.301.27-.471.41-.64.57-1.34 1.131-2.06 1.67-.351.27-.74.551-1.16.85-.49.34-.96.66-1.45.971l-.27.18c-.25.16-.5.32-.771.471-.35.219-.77.469-1.2.719-2.13 1.23-4.449 2.381-6.89 3.441-.33.15-.67.289-1.01.43-4.09 1.73-8.771 3.32-13.88 4.73-1.061.289-2.13.568-3.221.85-1.31.33-2.6.641-3.92.93l-1.37.301v89.41c0 17.889-30.42 29.26-65.8 33.238-.68-4.18-.43-7.389-.43-7.389v-115.35s25.2 6.439 34.5 0c1.86-1.291 3.22-3.4 4.2-5.941 2.27-5.889 2.51-14.129 2.319-20.01-.149-4.26-.52-7.289-.52-7.289s55.07-1.811 64.5-17.361c.955-1.559 3.024-2.571 5.984-3.11zM238.716 130.26h16.7l58.36-.44c7.45 0 14.75 2.85 20.62 8.02 5.88 5.18 9.62 12.09 10.53 19.44l18.079 144.7a22.65 22.65 0 0 1-14.34 24c-2.569 1-5.33 1.51-8.17 1.51-5.37 0-10.58-1.9-14.68-5.369a22.81 22.81 0 0 1-7.72-13.602l-14.301-85.849-8.319 99.82 4.41 52.221c.109-.041.22-.09.34-.121.24-.09.55-.199.859-.299l.2-.07c.391-.131.75-.25 1.13-.371.04-.01.08-.029.12-.039 1.771-3.121 4.46-5.871 7.75-8.281l-25.1 27.551s-.641-3.811-1.54-10.689c-3.24-24.74-9.79-89.18-1.57-158.76 8.561-72.47-64.57-82.32-91.92-83.49-6.21-.26-10.06-.08-10.06-.08s11.59-3.97 28.72-9.8c1.66-.56 3.38-1.15 5.14-1.74" opacity=".3"></path><path fill="#5C77FF" d="M207.657 115.584s42.076-8.472 42.076-48.22-42.076-48.219-42.076-48.219 70.906-37.25 80.828 47.355c.001.001-8.999 83.47-80.828 49.084z" opacity=".3"></path><path fill="#5C77FF" d="m170.876 322.492-5.222 94.111c-6.052-5.039-17.156-17.449-41.778-8.023-21.923 8.393-45.932 9.939-68.447 3.297-34.219-10.094-49.474-30.008-49.474-30.008 80.721-48.096 92.756-183.345 115.392-223.814l-18.068 144.542a19.543 19.543 0 0 0-.138 2.24c0 9.602 7.814 17.654 17.704 17.654 8.646 0 16.031-6.254 17.453-14.799l20.9-125.367 11.678 140.167z"></path><path fill="none" stroke="#464668" stroke-linecap="round" stroke-linejoin="round" stroke-miterlimit="10" stroke-width="10" d="M484.298 407.709v3.994c0-1.309-.249-2.594-.745-3.854.249-.043.497-.091.745-.14zm-133.5-51.819c-.249.041-.497.09-.746.141v-3.994c0 1.308.248 2.594.746 3.853zm-44.732 22.077v.01c-.125.031-.249.066-.373.098.124-.034.248-.067.373-.108z"></path><path fill="#354B87" d="M439.545 317.201c-45.75 0-94.369 12.18-94.489 34.75-10.87 2.359-25.271 6.578-34.771 13.578-3.29 2.41-5.979 5.16-7.75 8.281-.04.01-.08.029-.12.039-.38.121-.739.24-1.13.371l-.2.07c-.31.1-.619.209-.859.299-.12.031-.23.08-.34.121l-4.41-52.221 8.319-99.82 14.301 85.849a22.81 22.81 0 0 0 7.72 13.602 22.739 22.739 0 0 0 14.68 5.369c2.84 0 5.601-.51 8.17-1.51a22.652 22.652 0 0 0 14.34-24l-18.079-144.7c-.91-7.35-4.65-14.26-10.53-19.44-5.87-5.17-13.17-8.02-20.62-8.02l-58.36.44h-16.7c17.16-2.16 32.27-11.18 42.36-24.39 6.8-8.9 11.311-19.7 12.61-31.59 1.84-16.83-2.97-33.37-13.57-46.58s-25.7-21.5-42.54-23.35c-2.32-.26-4.67-.38-6.99-.38-32.35 0-59.41 24.28-62.94 56.48-1.85 16.83 2.97 33.38 13.56 46.59 8.5 10.58 19.89 18 32.75 21.48 2.87.78 5.82 1.36 8.82 1.74h-16.82l-58.45-.44c-15.23 0-29.16 12.27-31.08 27.38l-.02.09c-.01.05-.01.1-.02.15l-18.08 144.589c-.11.99-.17 1.91-.17 2.811 0 12.49 10.19 22.65 22.71 22.65a22.62 22.62 0 0 0 22.38-18.971l14.31-85.849 8.33 99.89-5.21 93.76-6.36 114.43a5.018 5.018 0 0 0 1.37 3.721c.94 1 2.25 1.559 3.63 1.559h.01l67.69-.18c.95.111 1.92.18 2.95.18 17.11 0 44.06-15.35 70.36-39.719v4.891c0 22.629 48.68 34.828 94.5 34.828 9.6 0 19.319-.539 28.689-1.59 35.38-3.979 65.8-15.35 65.8-33.238v-89.41l1.37-.301c1.32-.289 2.61-.6 3.92-.93 1.091-.281 2.16-.561 3.221-.85 5.109-1.41 9.79-3 13.88-4.73.34-.141.68-.279 1.01-.43 2.44-1.061 4.76-2.211 6.89-3.441.431-.25.851-.5 1.2-.719.271-.15.521-.311.771-.471l.27-.18a38.283 38.283 0 0 0 2.61-1.821c.72-.539 1.42-1.1 2.06-1.67.17-.141.32-.279.471-.41l.13-.129c.35-.311.68-.631 1.01-.961.22-.23.439-.449.649-.689.261-.26.48-.52.69-.77.8-.932 1.51-1.9 2.1-2.891a.488.488 0 0 0 .061-.1c.16-.26.31-.521.439-.771.171-.299.32-.609.471-.939.18-.379.34-.76.479-1.129.12-.311.24-.631.34-.971.101-.33.19-.66.271-.98.01-.039.02-.08.03-.109.04-.15.09-.391.109-.529.04-.17.07-.33.09-.5.03-.131.051-.271.061-.4.04-.281.07-.561.1-.85.01-.08.01-.16.01-.24.03-.33.04-.67.04-1.01v-29.83c-.004-22.63-48.684-34.839-94.504-34.839zm0 10c52.36 0 84.5 14.469 84.5 24.84 0 1.199-.449 2.469-1.31 3.76-.03.029-.05.07-.07.109-.109.15-.229.311-.34.461-.06.068-.1.139-.16.209-.05.061-.109.131-.17.199-1.6 1.941-4.1 3.932-7.42 5.842-5.64 3.26-13.27 6.109-22.37 8.389a162.95 162.95 0 0 1-9.58 2.09c-13.05 2.471-27.939 3.771-43.069 3.771-31.03 0-59.78-5.461-75.03-14.25-4.1-2.371-6.43-4.521-7.75-6.262l-.12-.148c-.05-.07-.09-.141-.14-.211-.07-.09-.13-.18-.19-.27-.05-.07-.09-.141-.13-.211-.05-.08-.1-.16-.15-.229a8.606 8.606 0 0 1-.579-1.201c0-.01-.011-.02-.021-.039-.26-.67-.39-1.33-.39-2.01 0-10.37 32.14-24.839 84.489-24.839zm-94.489 35v19.67c0 .34.01.68.029 1.01.011.08.011.16.021.24.02.289.06.58.1.859.011.129.03.26.061.391.029.199.06.389.109.619.021.131.04.211.08.35.011.051.021.111.04.17.07.32.16.65.271.971.1.35.22.68.35 1.01.17.461.36.859.47 1.109.141.311.301.621.471.92.14.271.29.541.5.891.59.98 1.3 1.949 2.06 2.84.23.27.46.541.72.801.221.25.44.479.66.699.32.32.66.641 1.04 1l.13.109c.141.131.28.262.37.33.7.621 1.4 1.191 2.09 1.701.38.289.78.58 1.23.9.45.309.93.639 1.45.969l.229.15c.25.16.51.33.72.449.41.25.83.5 1.28.762a69.96 69.96 0 0 0 3.32 1.779c.27.129.54.26.81.391.9.43 1.811.859 2.74 1.26.07.029.14.059.2.09.2.08.399.17.62.26.06.029.109.051.16.07.279.119.56.24.85.35-.43-.041-.86-.08-1.29-.131-.03 0-.06-.01-.09-.01-1.55-.17-3.08-.359-4.57-.549-.05-.01-.1-.01-.149-.021-.49-.068-.98-.129-1.48-.209-.06-.01-.11-.01-.16-.02-2-.291-3.8-.57-5.52-.861-.04-.01-.08-.01-.12-.02-.351-.061-.69-.129-1.04-.189-.021-.061-.05-.109-.07-.17-.17-.451-.35-.9-.56-1.32-.021-.051-.04-.109-.07-.15-.22-.469-.47-.91-.74-1.34-.09-.15-.18-.289-.27-.43-.2-.301-.41-.59-.63-.881-.101-.129-.2-.27-.311-.398-.3-.371-.62-.73-.96-1.07-.02-.021-.04-.041-.06-.07l-21.03-21.02c-.02-.021-.04-.051-.06-.07-.09-.08-.181-.15-.271-.24-.29-.27-.59-.541-.899-.801-.181-.139-.37-.289-.561-.43-.25-.18-.5-.35-.76-.52-.2-.141-.41-.27-.62-.4-.33-.199-.68-.379-1.03-.549-.319-.16-.649-.301-.979-.441-.271-.109-.53-.219-.8-.32-.28-.1-.561-.189-.851-.27-.26-.08-.54-.16-.81-.23-.29-.068-.57-.148-.86-.209-.5-.1-1.01-.189-1.53-.26 5.579-3.363 14.05-6.783 25.97-9.521zm79.019 54.059c.88.051 1.78.1 2.69.15 1.31.061 2.64.109 3.96.15.75.029 1.52.049 2.27.07 1.74.039 3.49.049 5.24.059.44 0 .88.012 1.32.012 2.17 0 4.38-.021 6.55-.07l2-.061c.08-.01.17-.01.25-.01 1.09-.031 2.16-.08 3.229-.121l.771-.029c.03 0 .07-.01.1-.01.86-.041 1.71-.09 2.53-.131 0 0 .01-.01.02-.01.98-.049 1.95-.109 2.931-.17.05-.01.09-.01.14-.02.95-.061 1.88-.131 2.82-.199.04-.012.09-.012.13-.012.03-.01.05-.01.07-.01.76-.059 1.52-.129 2.25-.189.14-.02.26-.029.399-.039l.62-.061c.04 0 .101-.01.15-.01 1.17-.111 2.319-.23 3.41-.35.6-.061 1.18-.131 1.77-.201.64-.07 1.271-.15 1.9-.23l.96-.119.439-.061c1.41-.18 2.8-.379 4.19-.59h.03l1.68-.26c-.021.051-.05.1-.07.15-.1.25-.21.49-.34.74-.04.08-.08.139-.15.27-.42.721-.97 1.449-1.64 2.17-.04.039-.07.08-.11.119a4.61 4.61 0 0 1-.229.24c-.07.061-.13.131-.2.201-.02.029-.05.049-.08.08-.13.139-.27.27-.41.389l-.109.111c-.181.16-.36.318-.551.479l-.229.191c-.03.029-.07.07-.11.1-.08.061-.149.129-.239.189-.051.041-.08.07-.141.121-.03.02-.06.039-.09.068-.07.061-.14.111-.21.17-.07.041-.13.092-.19.141l-.119.09c-.301.221-.601.451-.881.641-.35.25-.72.5-1.1.75l-.36.221c-.06.039-.119.08-.18.119-.09.061-.18.109-.26.16-.36.209-.72.43-1.08.641-.57.33-1.16.648-1.84 1.01a65.992 65.992 0 0 1-4.111 1.949c-.32.15-.64.279-.97.41-.04.02-.07.029-.11.051a82.078 82.078 0 0 1-6.08 2.27c-.27.1-.54.18-.81.27-.11.029-.21.07-.32.1-.03.01-.07.031-.109.041-.011 0-.021.01-.03.01-.431.141-.86.279-1.3.41l-1.42.43c-.58.17-1.181.35-1.78.52-.12.031-.22.061-.33.09l-.101.031c-.039 0-.069.01-.1.02-1 .279-2.02.539-3.03.801-1.18.299-2.39.578-3.63.859l-1.79.4c-.06.01-.069.01-.13.029l-.16.029h-.01l-.06.01-.49.111c-.19.039-.39.08-.601.119-.09.02-.17.041-.27.051l-.88.18-.61.119c-1.33.262-2.67.5-4.09.74-.6.111-1.2.211-1.85.311-.49.08-.98.16-1.511.23-1.409.219-2.85.43-4.31.609-.02.01-.04.01-.07.01h-.01c-.02.01-.04.01-.06.01-.15.031-.311.051-.54.07-1.07.141-2.141.27-3.24.391-.48.061-.96.109-1.45.16l-.17.02c-.04.01-.07.01-.1.01-.141.02-.28.041-.42.051-.07 0-.15.01-.221.02-.06.01-.12.01-.18.02l-1.04.1c-.06 0-.12.012-.19.021-.029 0-.06 0-.09.01-1 .1-2 .18-3.05.27-.38.029-.77.07-1.17.1-.33.02-.67.051-1.03.07-.29.029-.569.051-.859.061-.17.02-.33.029-.5.039-.891.061-1.79.111-2.681.16-.51.031-1.02.07-1.529.09-1.4.08-2.801.141-4.2.18-.76.041-1.51.061-2.36.08-.37.012-.75.021-1.12.031h-.17l-.6.02h-.29l-1.91.029c-1.95.01-3.92.01-5.86 0l-2.189-.029-.681-.02-1.229-.031h-.09c-.76-.02-1.51-.039-2.3-.08-.7-.02-1.4-.049-2.101-.08a282.82 282.82 0 0 1-6.5-.359c-.359-.029-.729-.061-1.1-.08-.23-.02-.45-.029-.681-.049-.699-.061-1.39-.111-2.079-.182-.07-.01-.15-.01-.221-.02-.05 0-.109 0-.16-.01-.069 0-.14-.01-.199-.01-.15-.02-.311-.029-.46-.051a110.1 110.1 0 0 1-2.74-.26c-.04 0-.08-.01-.12-.01-.3-.02-.59-.061-.88-.09l-.17-.01c-.45-.051-.891-.1-1.34-.16-.551-.061-1.11-.119-1.681-.189-.569-.07-1.149-.141-1.75-.221-.14-.01-.3-.039-.439-.061-.03 0-.12-.01-.15-.02-1.45-.18-2.89-.391-4.34-.609-.49-.08-.98-.15-1.521-.24-.609-.09-1.21-.189-1.859-.311-1.37-.23-2.71-.469-4.021-.73l-1.35-.27.03-.061c.02-.039.04-.09.06-.129.36-.82.7-1.631 1.03-2.43.1-.24.189-.471.28-.711.26-.639.5-1.27.729-1.9.08-.219.16-.43.24-.648a63.49 63.49 0 0 0 1.52-4.771c.061-.199.11-.389.16-.59.16-.6.3-1.189.43-1.77.051-.18.091-.369.131-.551.159-.738.3-1.469.42-2.189.14-.85.239-1.68.319-2.49.011-.07.021-.148.03-.219.01-.08.021-.16.021-.23.17.029.359.061.529.08.34.061.681.109 1.03.16.28.049.57.09.86.129l.779.121c.311.049.61.09.931.139.109.012.229.031.34.041.479.07.96.141 1.47.209.04 0 .08.012.12.021 1.56.199 3.16.389 4.75.57 1.54.18 3.11.34 4.69.479 3.819.361 7.76.631 12.069.83 1.78.08 3.57.141 5.38.191h.33c.761.02 1.53.039 2.311.049.43.01.859.01 1.3.01.63.01 1.27.021 1.92.021 1.45 0 2.94 0 4.48-.021.09 0 .18 0 .26-.01 1.08-.01 2.18-.029 3.3-.061.8-.02 1.6-.039 2.39-.068.74-.021 1.49-.051 2.23-.08l.27-.01c.61-.031 1.221-.051 1.82-.092 1.21-.059 2.4-.119 3.51-.199.96-.061 1.91-.119 2.771-.199.8-.051 1.59-.111 2.38-.182.28.021.57.051.85.07.03 0 .05 0 .08.01.04 0 .09 0 .13.012.78.059 1.561.109 2.351.17l.47.029c.02.01.05.01.07.01.02 0 .05 0 .069.01.641.041 1.271.08 1.9.111.344.019.674.039 1.013.059zm-126.589-29.77 1.06-.471c.71-.309 1.41-.609 2.04-.869.69-.279 1.381-.551 2-.779l.341-.131c.199-.07.399-.15.659-.24.24-.08.48-.17.721-.25l.199-.07c.311-.1.601-.199.971-.309a34.97 34.97 0 0 1 1.51-.471l.38-.1c.061-.021.13-.041.2-.061.04-.01.07-.02.11-.029s.069-.021.109-.031l.15-.039c.33-.09.66-.17 1.02-.25.28-.07.561-.131.83-.189l.23-.051c.319-.07.64-.141.96-.189l.16-.031c.08-.02.17-.029.25-.039l.33-.061c.14-.029.279-.039.43-.07.24-.029.5-.07.74-.09.04-.01.109-.02.159-.029l.23-.02.59-.051c.04-.01.07-.01.11-.01.069-.01.13-.01.2-.01.189-.021.359-.021.55-.031.38-.02.76-.02 1.12-.02.09 0 .17.01.26.01.29.01.58.02.86.041.069.01.14.01.21.02.29.029.579.061.859.109.04.01.07.01.11.021.31.049.6.109.88.189.01 0 .03.01.04.01 1.21.32 2.189.85 2.91 1.561v.01c.76.76 1.3 1.789 1.63 3.07.32 1.299.42 2.85.3 4.648-.13 1.92-.51 4.09-1.14 6.451a49.2 49.2 0 0 1-.641 2.16c-2.08 6.6-5.97 14.5-11.22 22.809a196.456 196.456 0 0 1-3.25 4.951 220.37 220.37 0 0 1-5.97 8.279l-.36.461c-6.32 8.27-13.57 16.5-21.54 24.469-21.94 21.941-46.13 38.41-63.13 42.98-2.93.791-5.56 1.189-7.8 1.189-2.92 0-5.06-.66-6.37-1.979-1.31-1.311-1.97-3.441-1.97-6.34 0-.301.01-.602.02-.92.01-.07.01-.15.01-.23 0-.1.01-.211.02-.32 0-.061.01-.189.02-.24l.03-.41.05-.48c.01-.049.01-.09.02-.139.03-.24.06-.5.1-.791.02-.119.03-.25.06-.369.03-.121.05-.24.06-.361.01-.068.02-.158.04-.238l.03-.17c.06-.32.13-.65.19-.951l.03-.141c.07-.309.14-.609.21-.949.07-.301.16-.609.24-.91l.26-.971c.15-.52.31-1.039.5-1.629l.3-.9.07-.221c.08-.238.16-.479.27-.77.09-.24.17-.48.26-.719l.07-.182c.25-.67.52-1.35.78-2 .29-.689.58-1.379.91-2.119.07-.18.15-.35.23-.529l.19-.42c.6-1.311 1.08-2.311 1.57-3.271l.16-.33c.12-.25.24-.488.4-.779.18-.369.37-.73.58-1.109l.59-1.121c.54-.99 1.1-1.99 1.73-3.08l.37-.639.22-.361a11.049 11.049 0 0 1 .31-.539c.23-.381.46-.77.7-1.17a163.19 163.19 0 0 1 3.4-5.34l.6-.891c.46-.689.93-1.391 1.39-2.061l.19-.27c.42-.6.84-1.199 1.31-1.85.71-1.01 1.45-2.02 2.22-3.061 2.89-3.91 6.07-7.891 9.45-11.869.37-.441.75-.881 1.13-1.32l.58-.67c2.45-2.811 4.93-5.541 7.36-8.1l1.15-1.201c1.23-1.289 2.5-2.58 3.78-3.859 1.28-1.279 2.57-2.551 3.87-3.779l1.17-1.131c2.61-2.471 5.34-4.961 8.08-7.35l.67-.57c.45-.391.91-.779 1.38-1.18a222.2 222.2 0 0 1 11.86-9.451c1.021-.76 2.04-1.5 3.09-2.238.561-.41 1.11-.791 1.671-1.172l.39-.279c.7-.48 1.39-.949 2.06-1.4l.91-.609c1.69-1.131 3.44-2.24 5.36-3.41.38-.23.76-.459 1.14-.68.04-.02.07-.041.101-.061l.52-.311.25-.148c.23-.131.45-.26.75-.43 1.01-.592 2.01-1.15 3.01-1.682.38-.209.75-.41 1.141-.609.359-.199.72-.381 1.12-.59.26-.141.52-.27.779-.391l.32-.16c.94-.476 1.951-.957 3.171-1.527zm-73.25 46.461 6.5-54.611 5.15 41.98c-.75.76-1.49 1.52-2.22 2.279l-1.16 1.211c-2.54 2.68-5.11 5.51-7.69 8.459l-.58.682zm-35.23-332.171c-8.92-11.12-12.98-25.06-11.42-39.24 2.97-27.12 25.76-47.57 53-47.57 1.96 0 3.94.1 5.9.32 14.18 1.56 26.9 8.54 35.83 19.66 8.92 11.13 12.979 25.07 11.43 39.24a53.338 53.338 0 0 1-27.06 40.86 53.084 53.084 0 0 1-18.28 6.17 53.992 53.992 0 0 1-13.57.23c-14.18-1.56-26.9-8.54-35.83-19.67zm-24.431 425.239 6.07-109.139 5.22-94.111c.01-.229.01-.459-.01-.689l-11.68-140.17a5 5 0 0 0-4.77-4.58 4.99 4.99 0 0 0-5.14 4.18l-20.9 125.361c-1.03 6.158-6.29 10.619-12.52 10.619-7.01 0-12.71-5.67-12.71-12.65 0-.51.04-1.061.1-1.619l18.06-144.471.02-.09c0-.05.01-.1.02-.15 1.26-10.13 10.96-18.69 21.13-18.69l42.69.32 15.76.12h49.54l58.36-.44c4.97 0 9.93 1.96 13.97 5.51 4.04 3.57 6.601 8.25 7.22 13.19l18.08 144.701a12.672 12.672 0 0 1-8.04 13.43c-1.43.561-2.96.84-4.55.84-3.01 0-5.93-1.061-8.21-3a12.768 12.768 0 0 1-4.319-7.619L307.075 181.51c-.42-2.49-2.64-4.29-5.14-4.18a5.01 5.01 0 0 0-4.78 4.58l-11.68 140.17c-.03.27-.03.551 0 .83l4.729 55.98c-.13.07-.26.129-.39.199l-.271.131-.92.459c-.409.221-.819.43-1.22.641-.4.221-.81.43-1.229.66-.851.471-1.71.939-2.53 1.41-.22.119-.44.25-.65.369-.3.17-.58.34-.87.51l-.159.09c-.25.141-.5.291-.75.451-.421.24-.841.49-1.24.74a140.79 140.79 0 0 0-5.71 3.629l-.91.611c-.72.479-1.44.969-2.19 1.488l-.42.291a187.726 187.726 0 0 0-5 3.599c-4.08 3.01-8.25 6.33-12.37 9.84-.48.4-.96.82-1.43 1.23l-.69.59a255.878 255.878 0 0 0-6.37 5.75l-9.25-75.551a5.002 5.002 0 0 0-4.97-4.389 4.99 4.99 0 0 0-3.32 1.26 5.024 5.024 0 0 0-1.64 3.15l-13.31 111.75c-.53.709-1.04 1.43-1.52 2.109-.48.66-.94 1.311-1.39 1.961l-.2.299c-.5.73-.99 1.439-1.48 2.17l-.61.91a164.28 164.28 0 0 0-3.62 5.689l-.74 1.24c-.16.26-.31.51-.41.691l-.15.27c-.17.27-.33.549-.44.75-.64 1.09-1.24 2.18-1.84 3.27l-.65 1.211c-.21.408-.42.818-.61 1.18-.16.309-.32.629-.48.949l-.13.27c-.54 1.061-1.07 2.17-1.76 3.67l-.19.41c-.1.23-.2.461-.29.66-.33.77-.65 1.51-.98 2.301-.32.779-.61 1.539-.9 2.311l-.08.209c-.11.291-.21.58-.29.811-.11.299-.22.609-.33.92l-.07.199c-.12.381-.24.75-.34 1.061-.22.68-.43 1.34-.62 2.02l-.2.721c-.02.049-.03.109-.04.16l-.06.23c-.11.408-.22.809-.3 1.189-.09.369-.17.73-.25 1.09l-.04.17c-.09.439-.18.869-.25 1.289-.05.23-.09.461-.12.682-.05.299-.1.59-.13.85-.05.309-.09.629-.13.93l-.06.6-.02.16c-.01.051-.01.09-.01.141l-.02.189c-.02.18-.03.359-.05.59-.03.34-.05.68-.05 1.02-.27 6.24 1.37 11.18 4.86 14.68h.01s.01.012.02.021l15.83 15.84-46.69.128zm141.191-49.16a226.878 226.878 0 0 1-4.05 4.182c-.271.279-.551.549-.83.83-26 26-55.18 44.158-70.94 44.158-2.92 0-5.06-.658-6.37-1.969l-9.53-9.541c.6-.09 1.23-.219 1.85-.34.21-.039.41-.07.63-.119.89-.189 1.8-.4 2.73-.65 18.88-5.08 44.15-22.109 67.61-45.57 8.28-8.279 15.82-16.85 22.36-25.41l.359-.459c.021-.031.051-.061.07-.09 2.26-2.98 4.36-5.91 6.26-8.68 1.11-1.631 2.23-3.342 3.44-5.23 5.79-9.18 9.93-17.65 12.3-25.141.29-.879.54-1.75.771-2.6.01-.029.02-.07.02-.1.21-.801.4-1.58.57-2.34.06-.271.1-.541.16-.811.1-.529.199-1.061.29-1.58.02-.131.05-.26.069-.381l9.54 9.541c.92.92 1.51 2.199 1.79 3.93.3 1.779.24 3.961-.18 6.48-.84 5.129-3.21 11.559-6.84 18.59-2.16 4.189-4.771 8.58-7.74 13.07-2.38 3.59-5.03 7.299-7.88 11.02-4.919 6.421-10.449 12.88-16.459 19.21zm173.529 24.342c0 8.35-20.819 19.34-56.229 23.309-8.59.971-18.04 1.52-28.26 1.52-52.36 0-84.5-14.459-84.5-24.828v-13.49c.25.189.51.379.8.58.46.318.93.639 1.45.979l.22.131c.24.16.5.32.729.459.41.25.83.5 1.28.762 2.11 1.219 4.431 2.369 6.87 3.43.32.15.65.279.98.42 4.13 1.74 8.8 3.33 13.909 4.74.23.059.46.119.681.18.63.17 1.27.34 1.92.51.22.051.43.109.649.17 1.271.32 2.57.631 3.801.9.609.139 1.229.279 1.859.41.15.039.311.07.48.1l.46.1 1.02.211c.58.119 1.17.229 1.84.359 1.301.25 2.62.49 3.91.709.69.121 1.38.24 2 .33.681.121 1.36.221 2.021.32 1.37.201 2.76.4 4.08.57.5.07.989.141 1.489.189.641.08 1.28.16 1.91.23l.12.02c.54.061 1.09.131 1.59.182 1.13.119 2.28.238 3.44.34.39.049.79.08 1.17.109.75.07 1.51.141 2.27.199h.061c.05.01.09.01.14.021.94.068 1.87.139 2.82.199.04.01.09.01.14.02.971.061 1.95.121 2.91.17.88.051 1.78.1 2.69.15 1.31.061 2.64.109 3.96.15.75.029 1.51.049 2.27.07 2.28.049 4.58.07 6.891.07 1.96 0 3.939-.031 5.89-.07h.32c.22-.01.43-.021.649-.021l.98-.029c.21-.01.43-.01.63-.02 1.34-.041 2.66-.09 3.99-.15.899-.039 1.8-.1 2.649-.15.99-.049 1.96-.109 2.94-.17.04-.01.09-.01.14-.02.94-.061 1.88-.131 2.811-.199.05-.012.09-.012.14-.012.02-.01.04-.01.07-.01.76-.059 1.52-.129 2.26-.189.11-.01.22-.029.34-.039.16-.012.32-.031.47-.041.12-.01.25-.02.37-.039 1.12-.102 2.22-.211 3.28-.33.04 0 .07-.01.11-.01.55-.051 1.09-.121 1.63-.182l.109-.02c.65-.07 1.29-.15 1.92-.23.511-.049 1-.119 1.41-.18 1.41-.18 2.79-.379 4.141-.58.68-.1 1.359-.199 1.96-.309.699-.102 1.39-.221 2.04-.33 1.3-.23 2.58-.461 3.93-.711.01-.01.03-.01.05-.01l.021-.01c.02 0 .029 0 .05-.01.58-.111 1.16-.221 1.74-.34.35-.07.689-.141 1.029-.211l.49-.1c.15-.029.31-.07.46-.1.62-.131 1.23-.271 1.75-.391 1.33-.289 2.62-.6 3.89-.92 1.101-.27 2.19-.57 3.261-.859 4.489-1.24 8.62-2.631 12.359-4.121.511-.199 1.03-.4 1.521-.609h.02l.09-.041c.311-.129.631-.26.851-.369.01 0 .01 0 .02-.01.011 0 .021-.01.03-.01.19-.08.37-.17.56-.25.41-.191.83-.371 1.24-.561.04-.02.08-.039.12-.061 1.22-.57 2.4-1.17 3.54-1.779.49-.26.96-.529 1.43-.801.431-.25.86-.5 1.24-.729.26-.16.521-.32.771-.48l.229-.15c.49-.311.96-.641 1.45-.98a.34.34 0 0 0 .1-.07c.23-.16.45-.318.67-.479v13.492zm0-29.621c-.02.1-.02.189-.029.291 0 .059-.011.129-.021.199-.01.029-.01.07-.02.109-.01.061-.021.111-.021.16-.01.041-.02.08-.02.111v.01c-.03.1-.061.209-.08.309a4.4 4.4 0 0 1-.061.191l-.029.119c-.021.041-.03.09-.05.131-.04.1-.08.199-.11.299-.05.141-.12.281-.18.42-.061.111-.12.221-.221.41-.069.141-.16.291-.22.391-.31.51-.69 1.029-1.17 1.59-.11.131-.22.25-.34.381-.05.049-.101.1-.141.158-.1.111-.21.221-.31.32l-.12.121c-.12.119-.25.25-.39.369-.04.051-.09.09-.141.141l-.439.391c-.48.42-.96.818-1.47 1.199-.04.02-.07.051-.11.07-.271.219-.561.42-.811.6-.359.25-.729.51-1.079.73l-.25.16c-.19.119-.381.24-.58.359-.181.109-.351.209-.53.32-.17.1-.351.209-.521.311-.71.408-1.46.799-2.22 1.189-.89.459-1.83.92-2.81 1.359-.301.131-.58.26-.88.391-.03.02-.061.029-.091.039-.04.021-.069.031-.1.051-.21.09-.42.18-.64.27l-.021.01c-3.72 1.561-7.99 3.01-12.67 4.311-1 .27-2.02.539-3.03.801-1.18.289-2.39.58-3.63.85l-1.779.4c-.07.01-.08.02-.15.029l-.69.15c-.279.059-.56.119-.84.17-.03 0-.069.01-.1.02-.47.1-.931.189-1.4.279l-.31.061c-1.24.23-2.5.461-3.811.68-.609.111-1.21.211-1.89.32-.6.1-1.2.189-1.82.279-1.31.191-2.63.391-4.06.57-.391.061-.78.111-1.18.15-.04.01-.08.01-.12.02-.601.08-1.221.15-1.841.221-.229.029-.46.051-.689.09-.311.029-.62.07-.95.1-.14.01-.28.031-.41.041-.76.08-1.529.16-2.3.229l-.65.061c-.34.041-.68.07-1.05.1-.68.07-1.37.131-2.06.182l-.37.029c-.89.07-1.79.141-2.69.199-.05 0-.09.01-.14.01-.9.061-1.8.121-2.74.17-.85.051-1.72.102-2.56.141-1.271.051-2.55.1-3.87.141-.7.029-1.43.049-2.15.07-4.189.1-8.449.1-12.649 0-.721-.021-1.44-.041-2.17-.07-1.29-.041-2.57-.09-3.83-.141-.86-.039-1.721-.09-2.601-.141-.909-.049-1.81-.109-2.71-.17-.05 0-.1-.01-.14-.01-.91-.059-1.81-.129-2.71-.199l-.35-.029a81.454 81.454 0 0 1-2.101-.182c-.34-.029-.68-.059-1.01-.09-.021-.01-.11-.01-.13-.02-1.09-.1-2.17-.199-3.271-.33-.54-.049-1.069-.119-1.63-.18-.609-.07-1.22-.141-1.82-.221-.039-.01-.079-.01-.119-.02-.391-.039-.78-.09-1.16-.15-.04 0-.07-.01-.11-.01-1.34-.17-2.66-.369-3.99-.561-.6-.09-1.189-.18-1.87-.289l-.34-.061c-.38-.059-.77-.119-1.16-.189-.119-.02-.229-.041-.35-.061-1.27-.219-2.54-.449-3.75-.68l-.33-.061c-.47-.09-.939-.18-1.399-.279-.04-.01-.08-.02-.11-.02-.29-.061-.57-.121-.85-.17l-.521-.111c-.01-.01-.09-.02-.13-.029-.061-.02-.12-.029-.18-.039l-1.79-.4c-.13-.031-.261-.061-.391-.09-1-.221-1.979-.451-2.939-.691-.09-.02-.181-.049-.261-.068-1.039-.262-2.06-.531-3.05-.801-4.689-1.301-8.96-2.75-12.689-4.32l-.101-.039c-.22-.09-.439-.182-.729-.32-2.12-.91-4.101-1.9-5.891-2.93a39.231 39.231 0 0 1-1.069-.641l-.8-.5c-.391-.24-.761-.5-1.08-.73-.091-.061-.17-.119-.261-.18.181-.189.351-.391.53-.58a136.23 136.23 0 0 0 1.64-1.84c.341-.381.681-.75 1.021-1.131.79-.908 1.58-1.809 2.35-2.719.37-.43.73-.861 1.091-1.291.47-.549.93-1.1 1.39-1.66.39-.459.77-.93 1.149-1.389.44-.551.881-1.09 1.32-1.641.271-.33.54-.66.811-1 .739.27 1.5.52 2.27.779.04.021.09.031.14.051.881.289 1.78.57 2.69.85l.61.18c.97.291 1.949.58 2.96.861.02 0 .04.01.05.01 1.02.279 2.06.549 3.14.83.021 0 .04.01.061.01.01.01.02.01.04.01 1.199.311 2.43.59 3.699.881.021 0 .03.01.051.01.64.16 1.31.299 2.02.449h.04l.08.02c.05.021.1.031.15.041.02 0 .04.01.06.01l2.24.459c.359.07.71.141 1.08.211.689.131 1.38.26 2.09.391l1.88.33 1.27.199 2.671.43c1.359.201 2.75.4 4.18.59l.439.051c.32.049.641.09.96.119.641.09 1.28.16 1.91.24l.13.01c.54.07 1.08.131 1.58.18 1.141.131 2.28.25 3.44.352.4.039.79.08 1.17.109.75.07 1.51.141 2.27.189h.011c.02.01.04.01.06.01.03 0 .061.01.09.01h.04c.94.08 1.88.141 2.82.211.05 0 .09.01.14.01.98.07 1.95.131 2.91.18.88.051 1.78.1 2.69.141 1.319.061 2.64.109 3.96.15.75.029 1.52.049 2.27.07 1.45.039 2.91.039 4.37.049.73.01 1.46.031 2.19.031 2.18 0 4.38-.031 6.55-.08.76-.021 1.52-.041 2.25-.07 1.34-.041 2.67-.09 4-.15h.12c.85-.041 1.7-.09 2.51-.141h.02c.98-.049 1.961-.109 2.931-.18.05 0 .09-.01.14-.01.95-.07 1.88-.131 2.82-.211.03 0 .08 0 .12-.01.029 0 .06 0 .08-.01.76-.049 1.52-.119 2.239-.189.4-.029.771-.07 1.101-.1.03 0 .069-.01.1-.01 1.12-.102 2.22-.221 3.28-.34h.12c.49-.051.96-.111 1.43-.17.07 0 .13-.012.2-.021h.01c.03 0 .061-.01.101-.01.64-.08 1.29-.15 1.93-.24.31-.029.63-.07.95-.119l.47-.061c1.4-.18 2.79-.379 4.16-.58l3.95-.641c.439-.068.859-.148 1.279-.229.9-.16 1.801-.311 2.681-.48l1.06-.211 2.16-.439.1-.02c.07-.02.13-.029.21-.051l.16-.029c.65-.141 1.3-.279 1.88-.42h.03c.26-.061.51-.131.76-.18 1.05-.24 2.08-.48 3.09-.73 1.101-.279 2.19-.57 3.261-.859 1.66-.461 3.26-.951 4.83-1.451 3.25-1.02 6.29-2.119 9.05-3.279.359-.15.71-.301.97-.42.25-.109.49-.221.74-.33a72.768 72.768 0 0 0 4.56-2.221c.55-.289 1.08-.59 1.59-.879.021-.01.03-.021.051-.031.439-.26.87-.51 1.199-.719.011 0 .021-.01.03-.021h.01c.25-.148.49-.299.73-.459l.26-.16c.49-.32.96-.641 1.45-.98.25-.17.479-.34.7-.5.02-.01.05-.029.069-.049v13.697zm0-29.811c-.01.08-.02.17-.02.25-.01.07-.021.141-.03.221-.01.02-.01.061-.01.1l-.03.18-.02.121c-.03.09-.05.189-.07.279l-.06.211c-.021.039-.03.08-.04.119-.011.041-.03.08-.04.131a4.18 4.18 0 0 0-.13.33c0 .01-.011.01-.011.02-.029.09-.069.18-.119.279a.299.299 0 0 0-.04.08c-.04.09-.08.18-.131.27-.029.051-.06.102-.079.15a12.221 12.221 0 0 1-1.73 2.35c-.05.051-.1.102-.14.15-.101.121-.21.23-.32.34-.2.201-.41.41-.64.621l-.44.389c-.44.391-.95.801-1.57 1.271-.029.02-.05.039-.08.059-.25.191-.51.381-.75.551-.029.02-.06.039-.09.061-.33.229-.67.459-.989.67l-.08.049-.23.141c-.01.01-.03.02-.04.029-.12.08-.25.16-.37.23-.05.031-.09.051-.14.09-.32.201-.66.4-1.03.611-.439.25-.89.5-1.359.75-.931.5-1.931 1-2.99 1.488-.53.25-1.08.49-1.641.74a.675.675 0 0 1-.08.031 18.1 18.1 0 0 1-.619.27c-.021.01-.03.01-.051.02-3.739 1.57-8 3.02-12.68 4.311-.99.27-2 .549-3.03.799-1.189.301-2.409.58-3.63.861l-1.1.24c-.21.049-.41.1-.63.139-.15.031-.3.07-.45.102l-.29.059-2.75.551c-.021.01-.04.01-.05.01-1.24.24-2.49.471-3.75.68l-2.271.371-1.51.238c-.87.131-1.75.25-2.64.371-.44.061-.88.129-1.32.189l-.5.061c-.26.039-.52.07-.78.1-.04 0-.069.01-.109.01-.601.08-1.221.15-1.851.23h-.06c-.2.029-.41.051-.62.07-.24.039-.49.061-.74.09-.07.01-.14.02-.21.02-1.07.121-2.16.24-3.26.33-.03.01-.07.01-.101.01-.34.041-.67.07-1.05.1l-2.05.182-.38.029c-.5.039-1 .07-1.5.109-.4.031-.79.061-1.19.09-.05 0-.1 0-.14.01h-.04c-.89.061-1.78.121-2.7.16-.79.051-1.59.09-2.37.131-.069.01-.13.01-.189.01-1.271.061-2.55.109-3.87.15-.71.02-1.43.049-2.15.061-2.1.049-4.21.08-6.319.08-2.11 0-4.23-.031-6.33-.08-.721-.012-1.44-.041-2.17-.061a45.32 45.32 0 0 1-1.28-.051c-.85-.029-1.71-.059-2.55-.1-.57-.02-1.16-.061-1.74-.09-.29-.02-.57-.029-.86-.051-.909-.039-1.81-.1-2.71-.16-.05-.01-.1-.01-.14-.01h-.01c-.9-.068-1.79-.129-2.681-.199-.08-.01-.159-.01-.239-.02-.051 0-.101-.01-.15-.01-.69-.061-1.37-.121-2.08-.182-.35-.029-.68-.059-1.01-.1-.021 0-.11-.01-.13-.01-1.09-.1-2.17-.209-3.271-.33-.52-.049-1.04-.119-1.58-.18l-.04-.01a62.663 62.663 0 0 1-1.42-.17c-.14-.01-.27-.031-.41-.051-.029 0-.069-.01-.109-.01a20.52 20.52 0 0 1-.78-.1l-.47-.061c-1.351-.18-2.68-.369-3.97-.561l-3.78-.609c-1.271-.209-2.53-.439-3.76-.68-.33-.061-.65-.119-.98-.189l-1.81-.371-.29-.059c-.07-.012-.141-.021-.2-.041-.08-.01-.16-.029-.22-.051l-1.761-.389h-.04c-1.22-.281-2.43-.561-3.609-.861-1.021-.25-2.04-.529-3.021-.799-.93-.25-1.84-.52-2.739-.791-.351-.1-.681-.209-1.021-.309-.4-.131-.81-.25-1.21-.381.08-.109.15-.221.23-.33.06-.08.119-.17.189-.26 1.32-1.85 2.59-3.699 3.79-5.51.771-1.15 1.5-2.301 2.22-3.439.07-.111.141-.221.2-.33.66-1.051 1.3-2.09 1.91-3.121.07-.109.13-.219.2-.33.66-1.119 1.3-2.24 1.92-3.34.18.041.38.08.57.121.079.02.17.039.26.059.069.01.14.031.21.051l.45.09c.369.08.729.15 1.04.211l1.52.299c1.4.281 2.82.531 4.22.77.69.121 1.38.24 2.04.34.53.092 1.07.172 1.58.25 1.5.23 3.021.451 4.49.631l.43.061c.08.01.141.02.2.029.05 0 .1.01.13.01 1.61.211 3.23.4 4.88.58l.16.02c.37.041.74.07 1.03.102l.96.09 2.189.209.2.02h.021c.2.021.41.031.62.051.699.061 1.399.121 2.1.18.22.01.43.031.65.041.359.029.72.059 1.09.08l.13.01h.05c.19.02.38.029.57.039 2.89.191 5.63.34 8.319.43.25.012.49.012.73.021.49.02.96.029 1.41.049h.25c.229.01.47.01.7.021.229.01.47.01.699.02l.33.01h.32c.05 0 .09 0 .14.01l2.2.029h.28c.91.01 1.82.01 2.729.01.921 0 1.83 0 2.73-.01h.3c.74-.01 1.47-.02 2.21-.039h.141l.63-.01h.14c.37-.01.73-.02 1.04-.031.05 0 .1 0 .14-.01.83-.01 1.65-.039 2.44-.07 1.05-.039 2.13-.09 3.2-.139 1.47-.07 2.93-.15 4.399-.24.37-.029.74-.041 1.101-.07.51-.029 1.02-.07 1.439-.109.79-.051 1.57-.111 2.28-.17a277.1 277.1 0 0 0 3.23-.291c.119-.01.22-.02.319-.039.15-.01.32-.021.47-.041l.36-.029.101-.01c.039 0 .159-.02.199-.02.011 0 .03 0 .051-.012.039 0 .079-.01.09-.01.029 0 .05 0 .08-.01h.01c.24-.02.47-.049.71-.08l.1-.01c.12-.01.24-.029.36-.039.439-.051.88-.09 1.31-.141.71-.08 1.41-.17 2.101-.25.34-.041.689-.08 1.029-.131.271-.029.551-.068.75-.1 1.54-.189 3.061-.41 4.53-.641.54-.078 1.08-.158 1.57-.238.7-.111 1.39-.221 2.03-.34 1.449-.25 2.869-.5 4.27-.781l.8-.15.67-.139c.101-.01.19-.041.28-.051.271-.061.54-.109.8-.17l.511-.1c.149-.031.289-.061.439-.1.62-.131 1.24-.26 1.76-.391 1.32-.291 2.62-.6 3.891-.92 1.08-.27 2.149-.551 3.199-.84l.341-.09.1-.031.12-.029c.68-.189 1.36-.391 2.01-.59.41-.119.811-.24 1.16-.35.07-.02.13-.041.2-.061l.149-.051c.46-.139.9-.27 1.341-.42.05-.02.109-.029.159-.049.471-.141.931-.301 1.351-.439 2.37-.801 4.63-1.641 6.689-2.512l.15-.059a40.11 40.11 0 0 0 1.14-.481c.82-.359 1.63-.73 2.431-1.109.79-.381 1.569-.771 2.25-1.131.779-.391 1.51-.801 2.25-1.221.42-.25.83-.5 1.26-.75.18-.109.36-.229.54-.34l.34-.219a.374.374 0 0 1 .09-.051c.49-.32.96-.641 1.46-.98.26-.189.51-.369.76-.559v13.731zm44.75-59.898c0 .09 0 .17-.01.26-.01.08-.01.16-.01.24a.856.856 0 0 0-.021.158c-.01.051-.02.111-.029.172 0 .039-.01.078-.021.119l-.029.16-.061.27-.06.211c-.021.039-.03.08-.04.119-.011.051-.03.09-.05.141-.03.09-.07.18-.101.27-.05.15-.12.289-.18.42-.04.09-.09.189-.141.279-.029.061-.06.111-.09.17-.06.121-.14.23-.22.381-.31.5-.68 1.02-1.18 1.59-.07.09-.141.18-.221.26-.09.09-.17.18-.25.27-.1.121-.21.23-.31.33-.22.211-.44.432-.64.621l-.44.379c-.49.441-.979.83-1.52 1.24-.29.221-.601.441-.881.641-.35.25-.729.51-1.079.73l-.29.189-.53.33c-.36.209-.72.43-1.07.631a58.213 58.213 0 0 1-5.899 2.949c-.03.01-.07.02-.101.039-.229.111-.479.211-.74.32-3.729 1.57-8 3.02-12.68 4.311-1 .27-2.02.539-3.03.801-1.18.289-2.39.58-3.63.85l-1.779.4c-.07.02-.08.02-.15.039l-2.13.43c-.34.07-.681.141-1.12.211-.2.049-.41.09-.7.139-.22.041-.45.08-.67.121-.82.15-1.64.311-2.47.449l-1.891.301-1.88.299c-.29.051-.59.08-.87.131-1.029.15-2.05.301-3.1.43l-.51.07c-.25.029-.51.07-.771.09-.04.01-.069.01-.109.02-.601.08-1.2.15-1.86.221-.41.051-.83.1-1.28.15-.109.01-.22.029-.34.039-1.08.121-2.18.23-3.37.34-.33.031-.67.061-1.04.102l-.689.059c-.45.041-.91.08-1.37.111-.13.01-.25.02-.38.039-.471.029-.95.061-1.42.1-.42.031-.841.061-1.261.09-.05 0-.1.01-.14.01-.9.07-1.8.121-2.74.17-.79.041-1.59.092-2.37.131-.069 0-.13.01-.189.01-1.271.051-2.55.1-3.87.141-.71.029-1.43.049-2.15.07-2.1.049-4.21.07-6.319.07-2.12 0-4.23-.021-6.33-.07-.721-.021-1.44-.041-2.17-.07-.261 0-.511-.02-.771-.031-1.03-.029-2.06-.068-3.06-.109-.69-.029-1.38-.07-2.08-.109l-.521-.031c-.909-.049-1.81-.1-2.71-.17-.05 0-.1-.01-.14-.01h-.01c-.4-.029-.79-.059-1.181-.09-.5-.029-1-.07-1.5-.1-.06-.01-.119-.01-.189-.02-.061 0-.12-.01-.19-.02-.27-.021-.529-.041-.8-.07-.08 0-.15-.01-.22-.021-.05 0-.09 0-.141-.01-.67-.049-1.34-.109-2.04-.18-1.1-.109-2.199-.209-3.31-.34-.54-.049-1.07-.119-1.61-.18a93.708 93.708 0 0 1-1.83-.221c-.039-.01-.079-.01-.109-.02-.271-.029-.54-.061-.811-.1l-.479-.061c-1.34-.17-2.65-.359-3.94-.549l-3.76-.611c-1.27-.219-2.53-.439-3.81-.689l-.051-.01a73.96 73.96 0 0 1-1.649-.33h-.01l-1.44-.291-.13-.029c-.061-.01-.12-.029-.18-.039l-1.79-.4c-1.23-.27-2.44-.561-3.591-.84-1.039-.271-2.06-.541-3.05-.811-4.689-1.291-8.96-2.74-12.77-4.35-.03-.01-.07-.031-.101-.041-.13-.059-.26-.109-.39-.17-.08-.029-.16-.07-.26-.109-2.12-.92-4.11-1.91-5.891-2.939-.369-.211-.729-.432-1.119-.67a7.72 7.72 0 0 1-.471-.291l-.279-.17c-.391-.25-.761-.51-1.08-.73-.32-.229-.62-.449-.96-.699a22.1 22.1 0 0 1-1.54-1.26l-.351-.311c-.229-.221-.45-.43-.649-.629a3.532 3.532 0 0 1-.33-.342c-.07-.09-.15-.17-.23-.25-.09-.09-.17-.189-.29-.34a11.995 11.995 0 0 1-1.109-1.5c-.08-.139-.17-.289-.24-.43a.948.948 0 0 1-.08-.15c-.061-.09-.1-.189-.16-.299-.05-.111-.1-.221-.14-.33-.021-.051-.04-.1-.061-.16-.02-.061-.05-.131-.069-.189-.021-.041-.03-.09-.051-.131l-.029-.119a.84.84 0 0 1-.061-.211c-.02-.09-.05-.18-.069-.279l-.03-.131c0-.039-.01-.08-.021-.129a.854.854 0 0 0-.02-.16c-.01-.061-.021-.121-.021-.18-.01-.092-.01-.182-.02-.262s-.01-.158-.01-.238v-13.49c.02.01.029.02.05.029 1.34.99 2.82 1.949 4.42 2.881 16.94 9.75 46.85 15.58 80.02 15.58 8.32 0 16.58-.381 24.54-1.121 7.101-.65 13.95-1.6 20.391-2.82 3.62-.68 7.09-1.439 10.399-2.279 9.91-2.51 18.33-5.689 24.7-9.371.71-.398 1.37-.809 2.021-1.229.05-.031.109-.07.159-.1.61-.391 1.19-.791 1.74-1.182.08-.059.16-.109.23-.17.109-.07.22-.148.319-.219v13.488zM83.162 327.65a5.006 5.006 0 0 0-4.376 5.547c.021.18 1.927 17.949-9.783 28.951-15.761 14.807-12.577 28.125-12.433 28.686a5.002 5.002 0 0 0 6.083 3.604 5 5 0 0 0 3.604-6.084c-.021-.08-1.543-8.455 9.593-18.916 15.457-14.523 12.977-36.506 12.864-37.434a4.999 4.999 0 0 0-5.552-4.354z"></path><path fill="#5C77FF" d="M300.981 403.437c-.684-.432-1.807-.305-3.071.25-1.277.561-2.697 1.555-3.956 2.852l-2.439 2.512a12.07 12.07 0 0 0-2.348-.012c-2.157.191-4.615.895-7.208 2.031-2.594 1.137-5.332 2.713-8.074 4.668a59.574 59.574 0 0 0-8.028 6.914c-2.555 2.615-4.724 5.314-6.438 7.928s-2.978 5.139-3.74 7.445c-.766 2.313-1.027 4.398-.755 6.143.274 1.736 1.09 3.133 2.478 4.02.729.455 1.138 1.16 1.27 2.053.145.883.005 1.949-.387 3.135-.393 1.184-1.035 2.479-1.91 3.809-.866 1.324-1.96 2.688-3.288 4.045a29.894 29.894 0 0 1-4.095 3.527c-1.394.998-2.799 1.805-4.132 2.391-1.332.584-2.581.941-3.675 1.033-1.104.104-2.038-.059-2.764-.523-.719-.459-1.129-1.164-1.272-2.045-.136-.887-.003-1.957.398-3.145.383-1.182 1.031-2.473 1.898-3.797.877-1.336 1.971-2.699 3.29-4.053 2.512-2.576 3.438-5.375 2.067-6.25-.685-.438-1.813-.311-3.085.246-1.271.557-2.683 1.545-3.943 2.834-2.549 2.621-4.718 5.318-6.432 7.932-1.714 2.615-2.978 5.141-3.739 7.445-.763 2.307-1.027 4.4-.754 6.137.105.678.295 1.303.566 1.865l-1.873 1.924c-2.511 2.576-3.434 5.367-2.064 6.24.685.439 1.812.313 3.081-.244 1.271-.557 2.683-1.545 3.938-2.832l1.87-1.92c.738.084 1.531.088 2.369.014 2.157-.191 4.606-.891 7.2-2.027 2.594-1.139 5.34-2.715 8.082-4.674a59.884 59.884 0 0 0 8.028-6.912c2.558-2.623 4.727-5.322 6.439-7.936 1.711-2.607 2.968-5.137 3.73-7.443.763-2.305 1.034-4.395.762-6.139s-1.09-3.133-2.483-4.025a1.598 1.598 0 0 0-.09-.051c-.662-.467-1.046-1.148-1.184-1.994-.135-.885-.002-1.955.398-3.145.381-1.172 1.031-2.471 1.898-3.795.878-1.338 1.969-2.691 3.291-4.055a30.2 30.2 0 0 1 4.102-3.523c1.394-.998 2.79-1.803 4.123-2.387 1.332-.584 2.591-.945 3.684-1.037 1.096-.1 2.038.059 2.757.518.726.465 1.139 1.16 1.271 2.053.145.883.002 1.957-.388 3.135-.393 1.184-1.034 2.479-1.91 3.809-.865 1.324-1.959 2.688-3.29 4.053-2.512 2.576-3.435 5.367-2.065 6.242.685.438 1.814.311 3.086-.248 1.272-.557 2.687-1.547 3.942-2.834 2.555-2.615 4.728-5.322 6.438-7.928 1.714-2.615 2.967-5.137 3.733-7.451.762-2.305 1.033-4.395.761-6.139a6.532 6.532 0 0 0-.571-1.873l2.467-2.541c2.509-2.578 3.415-5.361 2.034-6.225zm193.089-52.135c-.175-.773-1.043-1.465-2.307-1.959-1.274-.498-2.953-.793-4.726-.766l-3.438.051a11.703 11.703 0 0 0-1.622-1.641c-1.632-1.365-3.826-2.582-6.415-3.594-2.591-1.012-5.584-1.818-8.847-2.365a58.777 58.777 0 0 0-10.373-.775c-3.591.043-6.97.41-9.975 1.035s-5.635 1.502-7.766 2.572c-2.138 1.076-3.769 2.342-4.79 3.742-1.015 1.395-1.419 2.93-1.07 4.51.189.822-.017 1.596-.545 2.309-.513.711-1.349 1.355-2.443 1.906s-2.439 1.004-3.97 1.318c-1.522.318-3.227.506-5.091.527a29.228 29.228 0 0 1-5.294-.395c-1.66-.273-3.196-.689-4.526-1.209-1.331-.521-2.447-1.139-3.27-1.834-.839-.695-1.373-1.457-1.556-2.281-.181-.818.024-1.592.536-2.305.521-.709 1.356-1.361 2.461-1.908 1.085-.553 2.433-1 3.953-1.318a26.865 26.865 0 0 1 5.099-.529c3.532-.045 6.118-1.346 5.774-2.902-.172-.779-1.043-1.477-2.313-1.973-1.269-.494-2.936-.789-4.706-.768-3.588.049-6.968.416-9.972 1.041-3.005.627-5.636 1.502-7.766 2.572-2.131 1.072-3.769 2.342-4.783 3.738a6.481 6.481 0 0 0-.901 1.689l5.607-.074-5.607.074-2.636.035c-3.532.045-6.111 1.34-5.768 2.9.172.779 1.041 1.473 2.311 1.969 1.268.494 2.935.791 4.7.768l2.631-.033c.454.57 1.003 1.123 1.637 1.652 1.631 1.367 3.816 2.58 6.407 3.592 2.59 1.012 5.593 1.822 8.854 2.367 3.254.543 6.785.824 10.373.775 3.598-.047 6.977-.414 9.981-1.039 2.998-.621 5.626-1.504 7.758-2.576 2.13-1.072 3.771-2.334 4.791-3.734 1.022-1.398 1.419-2.93 1.068-4.518a1.715 1.715 0 0 0-.026-.098c-.136-.785.072-1.523.563-2.205.521-.709 1.356-1.361 2.46-1.908 1.079-.551 2.433-1 3.953-1.318 1.538-.318 3.236-.502 5.099-.529 1.864-.02 3.634.119 5.296.4 1.66.275 3.187.688 4.518 1.207s2.456 1.143 3.278 1.836c.83.693 1.373 1.457 1.555 2.275.183.824-.016 1.596-.544 2.307-.513.713-1.356 1.361-2.444 1.906-1.095.551-2.439 1.004-3.97 1.318-1.521.32-3.226.506-5.098.531-3.532.045-6.111 1.34-5.768 2.9.172.779 1.043 1.475 2.314 1.971 1.271.496 2.939.791 4.705.768 3.59-.041 6.977-.412 9.974-1.033 3.005-.625 5.626-1.506 7.765-2.58 2.131-1.072 3.771-2.336 4.791-3.734.4-.547.703-1.113.904-1.697l3.478-.051c3.53-.048 6.092-1.353 5.732-2.912z"></path></svg>