<svg xmlns="http://www.w3.org/2000/svg" enable-background="new 0 0 256 256" viewBox="0 0 256 256" id="stock-market"><path fill="#BAC0CE" d="M160.03,186.557c-8.182,0-54.362,0-64.059,0L88,246.482c9.265,0,70.636,0,80,0L160.03,186.557z"></path><path fill="#ADB2BC" d="M115.97,212.557c6.665,0,30.566,0,47.517,0l-3.458-26c-8.182,0-54.362,0-64.059,0L88,246.482
						c3.153,0,12.341,0,23.458,0L115.97,212.557z"></path><path fill="#83DEFF" d="M18.785,24.218h77.476v145.665H3V40.003C3,31.285,10.067,24.218,18.785,24.218z"></path><path fill="#EDF9FC" d="M3,169.883c0,7.332,0,9.197,0,17.563c0,8.718,7.067,15.785,15.785,15.785h218.429
						c8.718,0,15.785-7.067,15.785-15.785c0-7.332,0-9.197,0-17.563H3z"></path><path fill="#83DEFF" d="M18.785,24.218h77.476v145.665H3V40.003C3,31.285,10.067,24.218,18.785,24.218z"></path><path fill="#EDF9FC" d="M3,169.883c0,7.332,0,9.197,0,17.563c0,8.718,7.067,15.785,15.785,15.785h218.429
						c8.718,0,15.785-7.067,15.785-15.785c0-7.332,0-9.197,0-17.563H3z"></path><path fill="#59D9FC" d="M38.785,24.218h-20C10.067,24.218,3,31.285,3,40.003v129.88h20V40.003
						C23,31.285,30.067,24.218,38.785,24.218z"></path><path fill="#D0EFF7" d="M23,187.447c0-8.367,0-10.232,0-17.563H3c0,7.332,0,9.197,0,17.563c0,8.718,7.067,15.785,15.785,15.785
						h20C30.067,203.232,23,196.164,23,187.447z"></path><path fill="#EDF9FC" d="M96.262,24.218h140.953c8.718,0,15.785,7.067,15.785,15.785v129.88H96.262V24.218z"></path><path fill="#02CCAE" d="M230.964,153.93H118.297c-4.418,0-8-3.582-8-8V48.17c0-4.418,3.582-8,8-8h112.667c4.418,0,8,3.582,8,8
						v97.76C238.964,150.349,235.382,153.93,230.964,153.93z"></path><rect width="63.276" height="17.656" x="19.664" y="78.731" fill="#EDF9FC"></rect><rect width="63.276" height="17.656" x="19.664" y="108.731" fill="#EDF9FC"></rect><rect width="63.276" height="17.656" x="19.664" y="138.731" fill="#EDF9FC"></rect><path fill="#EDF9FC" d="M174.167,252.516H81.833c-4.142,0-7.5-3.358-7.5-7.5v0c0-4.142,3.358-7.5,7.5-7.5h92.333
						c4.142,0,7.5,3.358,7.5,7.5v0C181.667,249.158,178.309,252.516,174.167,252.516z"></path><path fill="#D0EFF7" d="M237.22,197.73h-27.78c-1.37,0-2.5-1.12-2.5-2.5s1.13-2.5,2.5-2.5h27.78c0.74,0,1.45-0.15,2.12-0.45
							c1.92-0.85,3.16-2.75,3.16-4.83c0-0.01,0-0.01,0-0.02c0.01-1.37,1.13-2.48,2.5-2.48c1.38,0,2.5,1.12,2.5,2.5
							c0,4.07-2.41,7.76-6.141,9.41C240.05,197.44,238.649,197.73,237.22,197.73z M200.45,197.73c-1.381,0-2.5-1.12-2.5-2.5
							s1.119-2.5,2.5-2.5c1.369,0,2.489,1.12,2.489,2.5S201.819,197.73,200.45,197.73z"></path><ellipse cx="51.303" cy="35.396" fill="#F9D171" rx="31.638" ry="31.912"></ellipse><path fill="#F7C961" d="M63.303,61.308c-17.473,0-31.638-14.287-31.638-31.912c0-10.105,4.661-19.106,11.927-24.953
						C29.846,7.916,19.664,20.455,19.664,35.396c0,17.625,14.165,31.912,31.638,31.912c7.455,0,14.303-2.607,19.711-6.959
						C68.545,60.973,65.963,61.308,63.303,61.308z"></path><path fill="#D0EFF7" d="M94.333 245.016c0-4.142 3.358-7.5 7.5-7.5h-20c-4.142 0-7.5 3.358-7.5 7.5s3.358 7.5 7.5 7.5h20C97.691 252.516 94.333 249.158 94.333 245.016zM140.653 194.951h-25.305c-2.779 0-5.032-2.253-5.032-5.032v-5.817c0-2.779 2.253-5.032 5.032-5.032h25.305c2.779 0 5.032 2.253 5.032 5.032v5.817C145.685 192.698 143.432 194.951 140.653 194.951z"></path><path fill="#384249" d="M51.303,69.808c-18.824,0-34.139-15.437-34.139-34.412c0-9.229,3.575-17.895,10.068-24.402
						c0.975-0.977,2.557-0.979,3.535-0.004c0.978,0.975,0.979,2.558,0.004,3.536c-5.551,5.563-8.607,12.975-8.607,20.871
						c0,16.218,13.071,29.412,29.139,29.412c16.066,0,29.138-13.194,29.138-29.412S67.369,5.984,51.303,5.984
						c-3.03,0-6.015,0.467-8.872,1.387c-1.309,0.422-2.722-0.298-3.146-1.613c-0.423-1.314,0.299-2.723,1.613-3.146
						c3.354-1.08,6.854-1.628,10.405-1.628c18.823,0,34.138,15.437,34.138,34.412S70.126,69.808,51.303,69.808z"></path><path fill="#384249" d="M53.16,55.222h-3.715c-6.105,0-11.072-5-11.072-11.146v-2.219c0-1.381,1.119-2.5,2.5-2.5
							s2.5,1.119,2.5,2.5v2.219c0,3.389,2.724,6.146,6.072,6.146h3.715c3.348,0,6.071-2.757,6.071-6.146s-2.724-6.146-6.071-6.146
							h-3.715c-6.105,0-11.072-5-11.072-11.146c0-6.215,4.967-11.215,11.072-11.215h3.715c6.104,0,11.071,5,11.071,11.146v2.219
							c0,1.381-1.119,2.5-2.5,2.5s-2.5-1.119-2.5-2.5v-2.219c0-3.389-2.724-6.146-6.071-6.146h-3.715
							c-3.349,0-6.072,2.757-6.072,6.146c0,3.458,2.724,6.215,6.072,6.215h3.715c6.104,0,11.071,5,11.071,11.146
							S59.265,55.222,53.16,55.222z"></path><path fill="#384249" d="M51.303 20.57c-1.381 0-2.5-1.119-2.5-2.5v-4.367c0-1.381 1.119-2.5 2.5-2.5s2.5 1.119 2.5 2.5v4.367C53.803 19.45 52.684 20.57 51.303 20.57zM51.303 59.589c-1.381 0-2.5-1.119-2.5-2.5v-4.367c0-1.381 1.119-2.5 2.5-2.5s2.5 1.119 2.5 2.5v4.367C53.803 58.47 52.684 59.589 51.303 59.589zM253 172.383H96.262c-1.381 0-2.5-1.119-2.5-2.5V24.218c0-1.381 1.119-2.5 2.5-2.5h140.953c10.082 0 18.285 8.203 18.285 18.285v129.88C255.5 171.264 254.381 172.383 253 172.383zM98.762 167.383H250.5V40.003c0-7.326-5.96-13.285-13.285-13.285H98.762V167.383z"></path><path fill="#384249" d="M238.964,156.43H110.298c-1.381,0-2.5-1.119-2.5-2.5V40.17c0-1.381,1.119-2.5,2.5-2.5h128.666
						c1.381,0,2.5,1.119,2.5,2.5v113.76C241.464,155.311,240.345,156.43,238.964,156.43z M112.798,151.43h123.666V42.67H112.798
						V151.43z"></path><path fill="#384249" d="M226.298,141.005H122.964c-1.381,0-2.5-1.119-2.5-2.5V58.402c0-1.381,1.119-2.5,2.5-2.5
						s2.5,1.119,2.5,2.5v77.603h100.834c1.381,0,2.5,1.119,2.5,2.5C228.798,139.886,227.679,141.005,226.298,141.005z"></path><path fill="#384249" d="M226.3,120.288c-0.846,0-1.672-0.43-2.142-1.207l-11.255-18.62l-7.819,11.808
						c-0.552,0.834-1.544,1.259-2.533,1.079c-0.984-0.18-1.767-0.929-1.988-1.904l-8.686-38.152l-14.875,44.536
						c-0.35,1.046-1.336,1.737-2.445,1.707c-1.103-0.033-2.053-0.784-2.34-1.849l-6.228-23.127l-6.266,9.064
						c-0.499,0.722-1.354,1.129-2.215,1.073c-0.875-0.055-1.657-0.566-2.062-1.344l-12.189-23.513l-18.31,23.883
						c-0.839,1.095-2.408,1.303-3.506,0.463c-1.096-0.84-1.303-2.409-0.463-3.505l20.703-27.005c0.52-0.678,1.33-1.045,2.204-0.969
						c0.852,0.075,1.606,0.58,2,1.34l12.087,23.315l6.97-10.084c0.554-0.8,1.522-1.208,2.481-1.042
						c0.96,0.166,1.736,0.873,1.989,1.813l5.474,20.326l15.074-45.133c0.354-1.063,1.383-1.762,2.494-1.705
						c1.12,0.055,2.065,0.849,2.314,1.942l9.37,41.159l6.775-10.23c0.463-0.7,1.246-1.12,2.084-1.12c0.017,0,0.034,0,0.052,0.001
						c0.856,0.018,1.645,0.473,2.088,1.206l13.298,22c0.714,1.182,0.335,2.719-0.847,3.433
						C227.187,120.172,226.74,120.288,226.3,120.288z"></path><path fill="#384249" d="M205 131.231c-.044 0-.088-.001-.133-.004-.879-.047-1.668-.552-2.078-1.33l-13.854-26.251-25.095-27.69-19.514 25.81c-.105.14-.226.268-.357.382l-19.369 16.776c-1.044.904-2.624.791-3.526-.253-.904-1.044-.791-2.623.253-3.526l19.17-16.604 21.176-28.007c.449-.594 1.14-.957 1.883-.99.741-.033 1.463.267 1.964.819l27.333 30.159c.141.155.261.327.358.512l12.048 22.83 18.964-28.209c.772-1.147 2.326-1.449 3.47-.68 1.146.77 1.45 2.324.681 3.47l-21.298 31.681C206.608 130.819 205.83 131.231 205 131.231zM82.94 98.887H19.664c-1.381 0-2.5-1.119-2.5-2.5V78.731c0-1.381 1.119-2.5 2.5-2.5H82.94c1.381 0 2.5 1.119 2.5 2.5v17.656C85.44 97.767 84.321 98.887 82.94 98.887zM22.164 93.887H80.44V81.231H22.164V93.887zM82.94 128.887H19.664c-1.381 0-2.5-1.119-2.5-2.5v-17.656c0-1.381 1.119-2.5 2.5-2.5H82.94c1.381 0 2.5 1.119 2.5 2.5v17.656C85.44 127.767 84.321 128.887 82.94 128.887zM22.164 123.887H80.44v-12.656H22.164V123.887zM82.94 158.887H19.664c-1.381 0-2.5-1.119-2.5-2.5v-17.656c0-1.381 1.119-2.5 2.5-2.5H82.94c1.381 0 2.5 1.119 2.5 2.5v17.656C85.44 157.767 84.321 158.887 82.94 158.887zM22.164 153.887H80.44v-12.656H22.164V153.887zM174.167 255.016H81.833c-5.514 0-10-4.486-10-10s4.486-10 10-10h92.334c5.514 0 10 4.486 10 10S179.681 255.016 174.167 255.016zM81.833 240.016c-2.757 0-5 2.243-5 5s2.243 5 5 5h92.334c2.757 0 5-2.243 5-5s-2.243-5-5-5H81.833zM237.215 205.732h-15.821c-1.381 0-2.5-1.119-2.5-2.5s1.119-2.5 2.5-2.5h15.821c7.325 0 13.285-5.96 13.285-13.285v-15.064H5.5v15.064c0 7.325 5.96 13.285 13.285 13.285h187.608c1.381 0 2.5 1.119 2.5 2.5s-1.119 2.5-2.5 2.5H18.785c-10.082 0-18.285-8.203-18.285-18.285v-17.564c0-1.381 1.119-2.5 2.5-2.5h250c1.381 0 2.5 1.119 2.5 2.5v17.564C255.5 197.529 247.297 205.732 237.215 205.732z"></path><path fill="#384249" d="M140.652,197.451h-25.305c-4.153,0-7.532-3.379-7.532-7.532v-5.817c0-4.153,3.379-7.532,7.532-7.532
						h25.305c4.153,0,7.532,3.379,7.532,7.532v5.817C148.185,194.072,144.806,197.451,140.652,197.451z M115.348,181.57
						c-1.396,0-2.532,1.136-2.532,2.532v5.817c0,1.396,1.136,2.532,2.532,2.532h25.305c1.396,0,2.532-1.136,2.532-2.532v-5.817
						c0-1.396-1.136-2.532-2.532-2.532H115.348z"></path><g><path fill="#384249" d="M96.262,172.383H3c-1.381,0-2.5-1.119-2.5-2.5V40.003c0-10.082,8.203-18.285,18.285-18.285h2.879
						c0.818,0,1.585,0.4,2.052,1.072c0.468,0.672,0.577,1.53,0.292,2.297c-1.224,3.3-1.844,6.769-1.844,10.309
						c0,16.218,13.071,29.412,29.139,29.412c16.066,0,29.138-13.194,29.138-29.412c0-3.54-0.62-7.009-1.844-10.309
						c-0.285-0.767-0.176-1.625,0.292-2.297c0.467-0.672,1.233-1.072,2.052-1.072h15.321c1.381,0,2.5,1.119,2.5,2.5v145.665
						C98.762,171.264,97.643,172.383,96.262,172.383z M5.5,167.383h88.262V26.718h-9.42c0.73,2.824,1.099,5.73,1.099,8.678
						c0,18.975-15.314,34.412-34.138,34.412c-18.824,0-34.139-15.437-34.139-34.412c0-2.944,0.368-5.847,1.096-8.668
						C11.177,27.004,5.5,32.853,5.5,40.003V167.383z"></path></g><g><path fill="#384249" d="M166.808,240.016H89.192c-0.721,0-1.406-0.311-1.881-0.853s-0.692-1.263-0.598-1.977l4.561-34.285
						c0.166-1.242,1.226-2.17,2.479-2.17h68.494c1.253,0,2.313,0.928,2.479,2.17l4.561,34.285c0.095,0.714-0.123,1.435-0.598,1.977
						S167.528,240.016,166.808,240.016z M92.047,235.016h71.906l-3.896-29.284H95.942L92.047,235.016z"></path></g></svg>