<svg xmlns="http://www.w3.org/2000/svg" enable-background="new 0 0 66 66" viewBox="0 0 66 66" id="office-colleagues"><rect width="38.529" height="9.762" x="2.493" y="32.756" fill="#9C673D"></rect><rect width="12.446" height="20.116" x="2.493" y="32.756" fill="#A67650"></rect><rect width="2.186" height="20.116" x="38.836" y="32.756" fill="#A67650"></rect><rect width="41.946" height="1.942" x=".784" y="31.651" fill="#273240"></rect><path fill="#E2EBF5" d="M18.0864,28.2274c0,0.2809-0.2299,0.5023-0.5108,0.5023H4.3721c-0.2809,0-0.5108-0.2213-0.5108-0.5023
				c0.203-8.5124-0.4483-9.6367,0.5108-9.6367h13.2036C18.5515,18.5907,17.8861,19.8298,18.0864,28.2274z"></path><path fill="#273240" d="M3.8613,26.8214v1.406c0,0.2809,0.2299,0.5023,0.5108,0.5023h13.2036
				c0.2809,0,0.5108-0.2213,0.5108-0.5023v-1.406H3.8613z"></path><polygon fill="#CEDEEF" points="13.037 31.651 8.911 31.651 10.103 22.044 11.845 22.044"></polygon><rect width="6.082" height="1.077" x="7.933" y="30.574" fill="#A5B2BF"></rect><path fill="#CEDEEF" d="M37.9057,31.2269c-0.0116,0-0.0224-0.0004-0.0333-0.0012c-0.2344-0.0179-0.4099-0.2224-0.3924-0.4568
					l0.4888-6.3901c-5.3217-4.3965-6.4811-4.609-5.9798-5.2449c0.1463-0.185,0.414-0.2157,0.5977-0.0715l6.0871,4.7877
					c0.1114,0.0877,0.1721,0.2253,0.1613,0.367l-0.5055,6.6166C38.3122,31.0569,38.126,31.2269,37.9057,31.2269z"></path><rect width="3.57" height="3.959" x="29.559" y="18.437" fill="#273240" transform="rotate(42.098 31.344 20.418)"></rect><path fill="#CEDEEF" d="M31.922,26.5386c3.665-4.4448-2.6677-10.1823-6.7275-6.0787L31.922,26.5386z"></path><path fill="#273240" d="M39.3557,24.3541c0,0.5704-0.4682,1.03-1.0301,1.03c-0.5704,0-1.03-0.4597-1.03-1.03
				c0-0.5619,0.4597-1.0301,1.03-1.0301C38.8875,23.324,39.3557,23.7922,39.3557,24.3541z"></path><path fill="#E2EBF5" d="M40.0894,31.6542c-0.1018-1.0868-1.006-1.9405-2.1195-1.9405c-1.1134,0-2.0176,0.8537-2.1195,1.9405
				H40.0894z"></path><rect width="20.889" height="49.625" x="44.323" y="3.247" fill="#9C673D"></rect><rect width="18.89" height="25.67" x="45.325" y="4.246" fill="#273240"></rect><rect width="18.89" height="21.96" x="45.325" y="29.916" fill="#273240"></rect><rect width="20.89" height="22.96" x="44.325" y="29.916" fill="#9C673D"></rect><g><rect width="19.977" height="1" x="44.667" y="12.08" fill="#9C673D"></rect><rect width="19.977" height="1" x="44.667" y="21.081" fill="#9C673D"></rect></g><g><rect width="1" height="22.96" x="54.276" y="29.916" fill="#7D5231"></rect></g><path fill="#E2EBF5" d="M53.7755 42.8159c0 .48-.39.86-.86.86-.48 0-.87-.38-.87-.86 0-.48.39-.87.87-.87C53.3854 41.9459 53.7755 42.3359 53.7755 42.8159zM57.5054 42.8159c0 .48-.39.86-.86.86-.48 0-.87-.38-.87-.86 0-.48.39-.87.87-.87C57.1154 41.9459 57.5054 42.3359 57.5054 42.8159z"></path><g><path fill="#F15956" d="M51.6169,12.0804h-0.675c-0.1095,0-0.1983-0.0888-0.1983-0.1983V5.1333
					c0-0.1095,0.0888-0.1983,0.1983-0.1983h0.675c0.1095,0,0.1983,0.0888,0.1983,0.1983v6.7489
					C51.8152,11.9916,51.7264,12.0804,51.6169,12.0804z"></path><rect width=".698" height="1.127" x="50.931" y="5.63" fill="#E2EBF5"></rect><rect width=".698" height=".269" x="50.931" y="6.985" fill="#E2EBF5"></rect><path fill="#4ED3A6" d="M50.0934,12.0804h-0.675c-0.1095,0-0.1983-0.0888-0.1983-0.1983V5.1333
					c0-0.1095,0.0888-0.1983,0.1983-0.1983h0.675c0.1095,0,0.1983,0.0888,0.1983,0.1983v6.7489
					C50.2916,11.9916,50.2029,12.0804,50.0934,12.0804z"></path><rect width=".698" height="1.127" x="49.407" y="5.63" fill="#E2EBF5"></rect><rect width=".698" height=".269" x="49.407" y="6.985" fill="#E2EBF5"></rect><g><path fill="#3D6ED4" d="M48.5698,12.0804h-0.675c-0.1095,0-0.1983-0.0888-0.1983-0.1983V5.1333
					c0-0.1095,0.0888-0.1983,0.1983-0.1983h0.675c0.1095,0,0.1983,0.0888,0.1983,0.1983v6.7489
					C48.7681,11.9916,48.6793,12.0804,48.5698,12.0804z"></path><rect width=".698" height="1.127" x="47.883" y="5.63" fill="#E2EBF5"></rect><rect width=".698" height=".269" x="47.883" y="6.985" fill="#E2EBF5"></rect></g><g><path fill="#F15956" d="M47.0462,12.0804h-0.675c-0.1095,0-0.1983-0.0888-0.1983-0.1983V5.1333
					c0-0.1095,0.0888-0.1983,0.1983-0.1983h0.675c0.1095,0,0.1983,0.0888,0.1983,0.1983v6.7489
					C47.2445,11.9916,47.1557,12.0804,47.0462,12.0804z"></path><rect width=".698" height="1.127" x="46.36" y="5.63" fill="#E2EBF5"></rect><rect width=".698" height=".269" x="46.36" y="6.985" fill="#E2EBF5"></rect></g></g><g><path fill="#F15956" d="M62.7328,21.0814h-0.675c-0.1095,0-0.1983-0.0888-0.1983-0.1983v-6.7489
					c0-0.1095,0.0888-0.1983,0.1983-0.1983h0.675c0.1095,0,0.1983,0.0888,0.1983,0.1983v6.7489
					C62.9311,20.9926,62.8423,21.0814,62.7328,21.0814z"></path><rect width=".698" height="1.127" x="62.047" y="14.631" fill="#E2EBF5"></rect><rect width=".698" height=".269" x="62.047" y="15.986" fill="#E2EBF5"></rect><path fill="#4ED3A6" d="M61.2092,21.0814h-0.675c-0.1095,0-0.1983-0.0888-0.1983-0.1983v-6.7489
					c0-0.1095,0.0888-0.1983,0.1983-0.1983h0.675c0.1095,0,0.1983,0.0888,0.1983,0.1983v6.7489
					C61.4075,20.9926,61.3187,21.0814,61.2092,21.0814z"></path><rect width=".698" height="1.127" x="60.523" y="14.631" fill="#E2EBF5"></rect><rect width=".698" height=".269" x="60.523" y="15.986" fill="#E2EBF5"></rect><g><path fill="#3D6ED4" d="M59.6857,21.0814h-0.675c-0.1095,0-0.1983-0.0888-0.1983-0.1983v-6.7489
					c0-0.1095,0.0888-0.1983,0.1983-0.1983h0.675c0.1095,0,0.1983,0.0888,0.1983,0.1983v6.7489
					C59.8839,20.9926,59.7952,21.0814,59.6857,21.0814z"></path><rect width=".698" height="1.127" x="58.999" y="14.631" fill="#E2EBF5"></rect><rect width=".698" height=".269" x="58.999" y="15.986" fill="#E2EBF5"></rect></g><g><path fill="#F15956" d="M58.1621,21.0814h-0.675c-0.1095,0-0.1983-0.0888-0.1983-0.1983v-6.7489
					c0-0.1095,0.0888-0.1983,0.1983-0.1983h0.675c0.1095,0,0.1983,0.0888,0.1983,0.1983v6.7489
					C58.3604,20.9926,58.2716,21.0814,58.1621,21.0814z"></path><rect width=".698" height="1.127" x="57.476" y="14.631" fill="#E2EBF5"></rect><rect width=".698" height=".269" x="57.476" y="15.986" fill="#E2EBF5"></rect></g></g><g><polygon fill="#CEDEEF" points="27.523 27.779 24.171 26.051 21.667 26.152 27.082 28.844 28.089 28.624"></polygon><path fill="#631010" d="M36.0891,60.0593h-0.6195c0.0005-0.0136-0.4678-12.9904-1.5726-17.1862c0,0-1.1063-2.9772-0.9405-3.2902
			c0.1657-0.313,1.1602-2.8367,1.1602-2.8367l4.1132-2.0503c0.4943,2.445-0.1536,6.9581-0.3738,9.1421
			C38.7515,47.2453,37.089,55.426,36.0891,60.0593z"></path><path fill="#6B1C1C" d="M33.5271,44.1151c0.3957,3.5104-1.1833,10.1315-3.2394,15.8662l-0.9791-0.0457
			c1.4257-6.2776,0.0465-11.6982,0.0407-15.3194c-0.0039-2.5879,1.92-10.172,1.92-10.172l2.5169-0.8837l4.4437,1.1355
			C37.9368,36.262,35.8,40.2878,33.5271,44.1151z"></path><path fill="#0F1B2B" d="M18.4954,34.3955c-0.612,4.6859-1.9501,14.981-4.2677,25.2027l-0.9375-0.0771l-1.371-25.3809
			l0.6321-1.7461L18.4954,34.3955z"></path><path fill="#7D5231" d="M14.5243,61.199c0,0-0.5909-0.2452-0.8426-0.1822c-0.2514,0.0627-0.6477,0.0376-0.7483-0.0943
			c-0.1006-0.1322,0.3569-1.4013,0.3569-1.4013l0.9375,0.0771c0,0,1.629,0.8276,2.2773,0.8902
			C17.1544,60.5511,16.7063,61.5513,14.5243,61.199z"></path><path fill="#273240" d="M17.6739,35.6198c-0.612,4.6859-3.0308,15.2362-5.3484,25.4579l-0.9375-0.0771l-1.371-25.3809
			l0.6321-1.7461L17.6739,35.6198z"></path><path fill="#F8B299" d="M16.9055,14.8251c0,0,1.3364,0.852,1.472,0c0.1355-0.852,0.5245-1.8008,0.5245-1.8008
			s0.6954,0.1259,0.4727-0.4454c-0.2227-0.5712-0.5325-0.7552-0.3001-1.3167c0.2324-0.5615-0.5809-2.0331-0.5809-2.0331
			s-1.887,0.0772-1.8976,0.0387c-0.4729-1.7146-3.3341,2.2617-2.9626,3.7371l-0.1998,1.0903c0,0,0.5483,1.1461,0.6355,1.2526
			c0.0871,0.1065,0.7552,0.608,0.881,0.6089c0.1259,0.001,1.209,0.1661,1.209,0.1661C16.2167,16.023,16.963,14.7251,16.9055,14.8251
			z"></path><path fill="#507CD8" d="M16.2186,16.0174c0.4919,0.4279,2.025,3.7114,2.3263,5.0739c0.1314,0.5945,0.1438,2.431,0.1438,2.431
			l-0.6478,0.5921c0,0-1.414,0.0975-1.428,0c-0.8894-6.2261-1.2406-6.6588-1.4906-7.9965
			C15.1223,16.1179,16.011,15.8368,16.2186,16.0174z"></path><path fill="#507CD8" d="M16.6397,35.9811c-2.3414,0.1533-4.6889,0.0056-7.0426-0.4374l1.0062-6.7135
			c0,0-1.7619-6.8908-1.4466-9.1969c0.3689-2.6996,3.1288-4.1667,3.1288-4.1667l0.5631-0.7435
			c3.1053,2.3107,4.5979,5.4079,5.2857,9.1862l0.4088,9.9629C18.5886,34.9759,17.7424,35.909,16.6397,35.9811z"></path><path fill="#E2EBF5" d="M18.1343,23.9093c-0.691-3.7946-2.1907-6.8834-5.2857-9.1862l0.4803-0.6674
			c0.9458,0.3454,1.927,1.0174,2.8897,1.9617C17.4667,19.9695,18.5084,21.2084,18.1343,23.9093z"></path><path fill="#CEDEEF" d="M16.2186,16.0174l-0.7415,1.3163c-0.5854-0.6785-1.0663-1.4483-2.6285-2.6107l0.4803-0.6674
			C14.2748,14.4011,15.2559,15.0731,16.2186,16.0174z"></path><path fill="#273240" d="M15.7053,11.8916h0.5809c0,0-0.029-0.881,0.4938-1.1037c0.5228-0.2227,0.2517-0.8133,0.2517-0.8133
			s1.7427,0.1452,2.3236-0.8617c0.5809-1.0069-3.9114-2.5947-5.5476-1.0166s-0.1743,4.9086-0.1743,4.9086
			s0.455,0.2808,0.6293-0.1065s-0.3873-1.6168,0.4841-1.7911S15.7053,11.8916,15.7053,11.8916z"></path><polygon fill="#EF4743" points="22.948 27.875 16.642 34.102 12.849 29.337 19.142 22.984"></polygon><path fill="#3D6ED4" d="M19.077,30.0125l-0.4278,0.7784c0,0-7.3914-0.9965-8.7588-2.7794
			c-1.1201-1.4599-0.5381-4.5821-0.928-7.2189c-0.7545-5.0998,4.5567-5.3753,4.8693-0.6725
			c0.0971,1.4584-0.5432,5.8228-0.5432,5.8228C14.4265,27.0596,16.9226,29.0442,19.077,30.0125z"></path><path fill="#F8B299" d="M20.4119,30.4747c0,0-0.5016,1.1944-1.0787,1.0384c-0.5768-0.1557-0.3909-0.395-0.684-0.7221
			l0.4278-0.7784c0,0,0.9773-0.0917,1.2428,0.0411C20.5852,30.1863,20.4119,30.4747,20.4119,30.4747z"></path><path fill="#9C673D" d="M12.6221,62.6785c0,0-0.5909-0.2452-0.8426-0.1822c-0.2514,0.0627-0.6477,0.0376-0.7483-0.0943
			c-0.1006-0.1322,0.3569-1.4013,0.3569-1.4013l0.9375,0.0771c0,0,1.629,0.8276,2.2773,0.8902
			C15.2522,62.0306,14.8041,63.0308,12.6221,62.6785z"></path><path fill="#4ED3A6" d="M38.906,27.3163c0.0272,1.4534-0.6761,7.3796-0.6761,7.3796c-2.7021,0.7291-4.8568,0.4559-7.0121-0.2688
			c-0.6849-0.2304-1.1369-0.8832-1.1102-1.6055c0.0817-2.2063,0.2742-6.8867,0.4904-8.5578
			c0.2703-2.095,1.8257-4.1195,3.2421-6.1678c0.5595-1.0402,1.3469-1.7747,2.305-2.2797c0,0,1.9531,2.3861,2.2797,3.3437
			C39.0844,21.0931,38.8681,25.2738,38.906,27.3163z"></path><path fill="#273240" d="M30.4917 60.8715c-.1226.5173-.2526 1.3168-.2526 1.3168h-.0956v-1.0396c0 0-.581.2869-.6915.809-.0804.3814-.8312.2452-1.2307.1438-.1408-.0356-.2314-.1725-.2083-.3159.0077-.0474.0274-.0911.0561-.1277.0287-.0367.0666-.0662.1106-.0853.2599-.1134.8192-.4843 1.1289-1.637l.9791.0457C30.2877 59.9813 30.6144 60.3542 30.4917 60.8715zM36.2023 60.7478l-.0988.9537h-.0639c0 0 .0553-.852-.0524-.8402-.1075.0116-.4302.436-.4622.6889-.032.253-1.006.1581-1.0844-.0343-.0786-.1924.3385-.3205.4535-.425.2185-.1986.5758-1.0356.5756-1.0315h.6195C36.0891 60.0593 36.3565 60.4454 36.2023 60.7478z"></path><path fill="#3ACE9C" d="M38.0729,28.8426c-1.3931,1.0645-9.0937-0.5522-9.0937-0.5522l-0.0583-0.6053
			c1.4077,0.0374,4.7939-1.0168,6.4956-1.2229c-0.2473-3.6381-2.3356-7.8392,0.6669-8.4893
			c0.8749-0.1896,1.8043,0.3597,2.0921,1.5583C38.7189,21.795,39.1282,28.0362,38.0729,28.8426z"></path><path fill="#F8B299" d="M28.9792 28.2904c0 0-.613.6134-.8809.611-.2945-.0026-.9737-.4841-.8934-.7674.015-.0532.1062-.0939.2056-.1232-.0378-.0024-.073-.0117-.1012-.0317-.1225-.0864.1548-.2019.5367-.2941.382-.0924 1.0748 0 1.0748 0L28.9792 28.2904zM36.1451 15.8163v-1.2639l-2.6547-3.6457-1.6154-.2401c0 0-.6564.984-.7204 1.3644-.0589.3503.1528.9933-.0764 1.419-.2292.4257.5914 1.6104.4389 2.4551-.0933.5167 1.4632.3187 1.4632.3187.5927.4469.5968 1.1175.8598 1.8722 0 0 2.6956-1.1641 2.6847-1.2732C36.514 16.7136 36.1451 15.8163 36.1451 15.8163z"></path><path fill="#9C673D" d="M33.8888,13.1517c0,0-0.4759-1.5574-1.0382-0.5882c0,0-0.3286,0.1468-0.4846-0.0175
			c-0.1555-0.1643-1.5579-2.0687-0.3373-3.2363c1.3765-1.3173,4.4963,0.203,5.2092,1.8864
			C38.5065,14.192,35.4098,17.002,33.8888,13.1517z"></path><path fill="#9C673D" d="M37.3069,11.5006c1.4002,0.3343,1.4633,1.5678,1.3271,2.9864c-0.1926,2.0061,0.552,2.0244,0.9203,2.673
			c0.5353,0.9426-0.37,1.9182,0.2836,3.5318c0.5523,1.3633,0.028,3.0248-0.0088,4.4953c-0.7449-0.2973-1.2106-1.0713-1.371-1.8571
			s-0.0683-1.5979-0.0063-2.3976c0.2441-3.1469-0.905-3.1101-1.6468-4.8829c-0.7405-1.7695,0.2071-2.6051,0.3322-3.6778
			c0.026-0.2229,0.0111-0.4864-0.1712-0.6172C37.0941,11.6612,37.1789,11.5938,37.3069,11.5006z"></path><path fill="#3D6ED4" d="M13.5793,16.9408l0.141-0.3587l-0.5054-0.094l-0.9295-1.0215l0.563-0.7435
			c3.1053,2.3107,4.5981,5.4079,5.2859,9.1862C17.049,22.106,13.5793,16.9408,13.5793,16.9408z"></path></g></svg>