<?xml version="1.0" encoding="UTF-8"?>
<!DOCTYPE svg PUBLIC "-//W3C//DTD SVG 1.1//EN" "http://www.w3.org/Graphics/SVG/1.1/DTD/svg11.dtd">
<svg xmlns="http://www.w3.org/2000/svg" version="1.1" width="180px" height="180px" style="shape-rendering:geometricPrecision; text-rendering:geometricPrecision; image-rendering:optimizeQuality; fill-rule:evenodd; clip-rule:evenodd" xmlns:xlink="http://www.w3.org/1999/xlink">
<g><path style="opacity:1" fill="#fcfcfb" d="M -0.5,-0.5 C 27.8333,-0.5 56.1667,-0.5 84.5,-0.5C 45.4253,4.05405 18.5919,24.7207 4,61.5C 2.14666,68.2327 0.646662,74.8994 -0.5,81.5C -0.5,54.1667 -0.5,26.8333 -0.5,-0.5 Z"/></g>
<g><path style="opacity:1" fill="#fbfbfb" d="M 95.5,-0.5 C 123.5,-0.5 151.5,-0.5 179.5,-0.5C 179.5,27.5 179.5,55.5 179.5,83.5C 172.394,34.6316 144.394,6.63165 95.5,-0.5 Z"/></g>
<g><path style="opacity:1" fill="#7e807a" d="M 84.5,-0.5 C 88.1667,-0.5 91.8333,-0.5 95.5,-0.5C 144.394,6.63165 172.394,34.6316 179.5,83.5C 179.5,87.5 179.5,91.5 179.5,95.5C 177.649,116.874 169.482,135.54 155,151.5C 151.559,155.121 147.726,158.121 143.5,160.5C 144.608,149.887 140.942,141.554 132.5,135.5C 131.71,134.206 130.71,133.039 129.5,132C 125.661,131.764 121.994,130.931 118.5,129.5C 117.737,128.732 116.737,128.232 115.5,128C 111.848,127.501 108.182,127.335 104.5,127.5C 104.737,126.209 104.404,125.209 103.5,124.5C 103.5,123.167 103.5,121.833 103.5,120.5C 103.5,117.5 103.5,114.5 103.5,111.5C 105.795,108.703 108.295,106.036 111,103.5C 112.396,100.936 113.563,98.2695 114.5,95.5C 117.797,90.4114 121.297,85.4114 125,80.5C 126.282,75.2948 125.449,70.6282 122.5,66.5C 123.404,65.791 123.737,64.791 123.5,63.5C 126.175,51.6827 122.842,42.1827 113.5,35C 102.987,28.892 91.6538,26.892 79.5,29C 66.4507,31.0492 58.6174,38.5492 56,51.5C 55.6861,57.0051 55.5194,62.3384 55.5,67.5C 52.8539,73.1221 53.0206,78.7888 56,84.5C 58.8426,87.083 61.3426,89.7497 63.5,92.5C 63.2627,93.791 63.596,94.791 64.5,95.5C 67.2524,100.979 70.7524,105.979 75,110.5C 75.4986,114.152 75.6653,117.818 75.5,121.5C 75.5,123.5 75.5,125.5 75.5,127.5C 73.5,127.5 71.5,127.5 69.5,127.5C 65.454,128.013 61.454,128.846 57.5,130C 55.6066,132.022 53.2733,133.188 50.5,133.5C 48.396,133.201 46.396,133.534 44.5,134.5C 42.8333,136.833 40.8333,138.833 38.5,140.5C 37.1814,145.107 36.1814,149.773 35.5,154.5C 35.7845,156.415 35.4511,158.081 34.5,159.5C 30.8951,157.073 27.3951,154.407 24,151.5C 21.7133,147.878 19.0466,144.545 16,141.5C 7.37988,127.94 1.87988,113.273 -0.5,97.5C -0.5,92.1667 -0.5,86.8333 -0.5,81.5C 0.646662,74.8994 2.14666,68.2327 4,61.5C 18.5919,24.7207 45.4253,4.05405 84.5,-0.5 Z"/></g>
<g><path style="opacity:1" fill="#5a4845" d="M 123.5,63.5 C 122.022,63.238 120.689,63.5713 119.5,64.5C 118.917,66.0016 118.084,67.3349 117,68.5C 116.667,68.1667 116.333,67.8333 116,67.5C 115.721,61.6426 115.221,55.8092 114.5,50C 115.334,47.8295 115.667,45.8295 115.5,44C 113.833,43.6667 112.167,43.3333 110.5,43C 111.888,42.1107 111.722,41.6107 110,41.5C 107.226,42.5358 104.393,43.3691 101.5,44C 100.663,45.0113 100.33,46.1779 100.5,47.5C 98.857,47.4802 97.5237,48.1468 96.5,49.5C 93.6996,48.2681 90.6996,47.6015 87.5,47.5C 84.8333,47.8333 82.1667,48.1667 79.5,48.5C 81.686,49.2208 83.8526,49.8875 86,50.5C 87.5445,49.1787 88.7112,49.5121 89.5,51.5C 86.8333,52.5 84.1667,53.5 81.5,54.5C 76.0664,52.8031 71.0664,53.4697 66.5,56.5C 65.7192,62.1789 64.7192,67.8456 63.5,73.5C 63.5,73.8333 63.5,74.1667 63.5,74.5C 62.8423,75.3984 62.1757,76.3984 61.5,77.5C 60.6764,74.2152 60.1764,70.8818 60,67.5C 58.5098,66.2721 57.0098,66.2721 55.5,67.5C 55.5194,62.3384 55.6861,57.0051 56,51.5C 58.6174,38.5492 66.4507,31.0492 79.5,29C 91.6538,26.892 102.987,28.892 113.5,35C 122.842,42.1827 126.175,51.6827 123.5,63.5 Z"/></g>
<g><path style="opacity:1" fill="#5b483b" d="M 123.5,63.5 C 123.737,64.791 123.404,65.791 122.5,66.5C 121.5,66.5 120.5,66.5 119.5,66.5C 119.373,70.2618 118.706,73.9285 117.5,77.5C 115.738,71.8935 114.405,66.2268 113.5,60.5C 115.079,55.0789 113.745,50.2456 109.5,46C 108.5,45.3333 107.5,45.3333 106.5,46C 104.34,47.332 102.34,48.832 100.5,50.5C 89.7966,55.4383 78.4632,57.4383 66.5,56.5C 71.0664,53.4697 76.0664,52.8031 81.5,54.5C 84.1667,53.5 86.8333,52.5 89.5,51.5C 88.7112,49.5121 87.5445,49.1787 86,50.5C 83.8526,49.8875 81.686,49.2208 79.5,48.5C 82.1667,48.1667 84.8333,47.8333 87.5,47.5C 90.6996,47.6015 93.6996,48.2681 96.5,49.5C 97.5237,48.1468 98.857,47.4802 100.5,47.5C 100.33,46.1779 100.663,45.0113 101.5,44C 104.393,43.3691 107.226,42.5358 110,41.5C 111.722,41.6107 111.888,42.1107 110.5,43C 112.167,43.3333 113.833,43.6667 115.5,44C 115.667,45.8295 115.334,47.8295 114.5,50C 115.221,55.8092 115.721,61.6426 116,67.5C 116.333,67.8333 116.667,68.1667 117,68.5C 118.084,67.3349 118.917,66.0016 119.5,64.5C 120.689,63.5713 122.022,63.238 123.5,63.5 Z"/></g>
<g><path style="opacity:1" fill="#fde7b4" d="M 87.5,57.5 C 86.4176,59.9785 87.4176,61.4785 90.5,62C 90.4727,79.6248 90.4727,97.4581 90.5,115.5C 87.7628,115.599 85.0961,115.265 82.5,114.5C 80.4017,113.086 79.4017,113.752 79.5,116.5C 80.552,116.351 81.552,116.517 82.5,117C 85.6882,120.594 89.6882,122.594 94.5,123C 95.2524,123.671 95.5858,124.504 95.5,125.5C 95.5,126.167 95.5,126.833 95.5,127.5C 90.1667,127.5 84.8333,127.5 79.5,127.5C 79.8337,124.509 78.8337,122.176 76.5,120.5C 76.5,117.5 76.5,114.5 76.5,111.5C 77.552,111.649 78.552,111.483 79.5,111C 78,109.833 76.5,108.667 75,107.5C 73.564,103.525 71.564,99.8585 69,96.5C 67.9125,98.9316 67.4125,98.5983 67.5,95.5C 66.5,95.5 65.5,95.5 64.5,95.5C 63.596,94.791 63.2627,93.791 63.5,92.5C 63.9944,88.4734 62.4944,85.4734 59,83.5C 58.51,82.2068 58.3433,80.8734 58.5,79.5C 60.1667,79.5 61.8333,79.5 63.5,79.5C 63.5,77.8333 63.5,76.1667 63.5,74.5C 63.5,74.1667 63.5,73.8333 63.5,73.5C 65.1238,73.6399 66.2904,72.9733 67,71.5C 67.3333,71.8333 67.6667,72.1667 68,72.5C 68.0167,68.107 68.85,63.9403 70.5,60C 73.3766,59.2751 76.0433,59.7751 78.5,61.5C 79.3857,60.675 79.719,59.675 79.5,58.5C 82.2372,58.5987 84.9039,58.2653 87.5,57.5 Z"/></g>
<g><path style="opacity:1" fill="#fddea8" d="M 113.5,60.5 C 112.107,62.5112 111.44,64.8446 111.5,67.5C 112.495,71.4933 113.495,75.4933 114.5,79.5C 116.5,79.5 118.5,79.5 120.5,79.5C 120.002,76.3192 120.835,73.6525 123,71.5C 124.055,76.6869 123.222,81.5202 120.5,86C 116.391,87.6952 114.391,90.8619 114.5,95.5C 113.563,98.2695 112.396,100.936 111,103.5C 108.295,106.036 105.795,108.703 103.5,111.5C 102.71,112.609 102.21,113.942 102,115.5C 100.938,114.903 99.7716,114.57 98.5,114.5C 95.4696,115.932 92.3029,116.932 89,117.5C 86.3254,117.343 84.1587,116.343 82.5,114.5C 85.0961,115.265 87.7628,115.599 90.5,115.5C 90.4727,97.4581 90.4727,79.6248 90.5,62C 87.4176,61.4785 86.4176,59.9785 87.5,57.5C 91.3837,57.0389 95.0504,55.8722 98.5,54C 99.8228,53.1841 100.489,52.0174 100.5,50.5C 102.34,48.832 104.34,47.332 106.5,46C 107.5,45.3333 108.5,45.3333 109.5,46C 113.745,50.2456 115.079,55.0789 113.5,60.5 Z"/></g>
<g><path style="opacity:1" fill="#f3dfb9" d="M 100.5,50.5 C 100.489,52.0174 99.8228,53.1841 98.5,54C 95.0504,55.8722 91.3837,57.0389 87.5,57.5C 84.9039,58.2653 82.2372,58.5987 79.5,58.5C 79.719,59.675 79.3857,60.675 78.5,61.5C 76.0433,59.7751 73.3766,59.2751 70.5,60C 68.85,63.9403 68.0167,68.107 68,72.5C 67.6667,72.1667 67.3333,71.8333 67,71.5C 66.2904,72.9733 65.1238,73.6399 63.5,73.5C 64.7192,67.8456 65.7192,62.1789 66.5,56.5C 78.4632,57.4383 89.7966,55.4383 100.5,50.5 Z"/></g>
<g><path style="opacity:1" fill="#f0e2bc" d="M 63.5,74.5 C 63.5,76.1667 63.5,77.8333 63.5,79.5C 61.8333,79.5 60.1667,79.5 58.5,79.5C 58.3433,80.8734 58.51,82.2068 59,83.5C 62.4944,85.4734 63.9944,88.4734 63.5,92.5C 61.3426,89.7497 58.8426,87.083 56,84.5C 53.0206,78.7888 52.8539,73.1221 55.5,67.5C 57.0098,66.2721 58.5098,66.2721 60,67.5C 60.1764,70.8818 60.6764,74.2152 61.5,77.5C 62.1757,76.3984 62.8423,75.3984 63.5,74.5 Z"/></g>
<g><path style="opacity:1" fill="#f0dcb3" d="M 113.5,60.5 C 114.405,66.2268 115.738,71.8935 117.5,77.5C 118.706,73.9285 119.373,70.2618 119.5,66.5C 120.5,66.5 121.5,66.5 122.5,66.5C 125.449,70.6282 126.282,75.2948 125,80.5C 121.297,85.4114 117.797,90.4114 114.5,95.5C 114.391,90.8619 116.391,87.6952 120.5,86C 123.222,81.5202 124.055,76.6869 123,71.5C 120.835,73.6525 120.002,76.3192 120.5,79.5C 118.5,79.5 116.5,79.5 114.5,79.5C 113.495,75.4933 112.495,71.4933 111.5,67.5C 111.44,64.8446 112.107,62.5112 113.5,60.5 Z"/></g>
<g><path style="opacity:1" fill="#fbfbfb" d="M 179.5,95.5 C 179.5,123.5 179.5,151.5 179.5,179.5C 157.5,179.5 135.5,179.5 113.5,179.5C 114.806,178.533 115.473,177.199 115.5,175.5C 115.833,175.5 116.167,175.5 116.5,175.5C 121.545,174.816 126.545,173.816 131.5,172.5C 131.5,171.5 131.5,170.5 131.5,169.5C 135.858,166.987 139.858,163.987 143.5,160.5C 147.726,158.121 151.559,155.121 155,151.5C 169.482,135.54 177.649,116.874 179.5,95.5 Z"/></g>
<g><path style="opacity:1" fill="#e9dcb9" d="M 64.5,95.5 C 65.5,95.5 66.5,95.5 67.5,95.5C 67.4125,98.5983 67.9125,98.9316 69,96.5C 71.564,99.8585 73.564,103.525 75,107.5C 76.5,108.667 78,109.833 79.5,111C 78.552,111.483 77.552,111.649 76.5,111.5C 76.5,114.5 76.5,117.5 76.5,120.5C 76.5,121.167 76.1667,121.5 75.5,121.5C 75.6653,117.818 75.4986,114.152 75,110.5C 70.7524,105.979 67.2524,100.979 64.5,95.5 Z"/></g>
<g><path style="opacity:1" fill="#fbfbfb" d="M -0.5,97.5 C 1.87988,113.273 7.37988,127.94 16,141.5C 19.0466,144.545 21.7133,147.878 24,151.5C 27.3951,154.407 30.8951,157.073 34.5,159.5C 37.6012,162.933 41.2679,165.6 45.5,167.5C 50.7814,171.494 56.7814,174.161 63.5,175.5C 65.7925,177.422 68.4592,178.755 71.5,179.5C 47.5,179.5 23.5,179.5 -0.5,179.5C -0.5,152.167 -0.5,124.833 -0.5,97.5 Z"/></g>
<g><path style="opacity:1" fill="#f0cd95" d="M 103.5,111.5 C 103.5,114.5 103.5,117.5 103.5,120.5C 102.067,121.833 100.733,123.333 99.5,125C 98.2068,125.49 96.8734,125.657 95.5,125.5C 95.5858,124.504 95.2524,123.671 94.5,123C 89.6882,122.594 85.6882,120.594 82.5,117C 81.552,116.517 80.552,116.351 79.5,116.5C 79.4017,113.752 80.4017,113.086 82.5,114.5C 84.1587,116.343 86.3254,117.343 89,117.5C 92.3029,116.932 95.4696,115.932 98.5,114.5C 99.7716,114.57 100.938,114.903 102,115.5C 102.21,113.942 102.71,112.609 103.5,111.5 Z"/></g>
<g><path style="opacity:1" fill="#faf0d2" d="M 103.5,120.5 C 103.5,121.833 103.5,123.167 103.5,124.5C 101.614,127.099 98.9476,128.099 95.5,127.5C 95.5,126.833 95.5,126.167 95.5,125.5C 96.8734,125.657 98.2068,125.49 99.5,125C 100.733,123.333 102.067,121.833 103.5,120.5 Z"/></g>
<g><path style="opacity:1" fill="#589184" d="M 118.5,129.5 C 121.994,130.931 125.661,131.764 129.5,132C 130.71,133.039 131.71,134.206 132.5,135.5C 128.691,133.272 124.524,131.939 120,131.5C 118.97,131.164 118.47,130.497 118.5,129.5 Z"/></g>
<g><path style="opacity:1" fill="#e9f3f1" d="M 76.5,120.5 C 78.8337,122.176 79.8337,124.509 79.5,127.5C 84.8333,127.5 90.1667,127.5 95.5,127.5C 98.9476,128.099 101.614,127.099 103.5,124.5C 104.404,125.209 104.737,126.209 104.5,127.5C 103.579,131.541 101.912,135.208 99.5,138.5C 98.3122,137.16 96.8122,136.493 95,136.5C 90.8244,137.783 86.6577,137.783 82.5,136.5C 81.5,136.5 80.5,136.5 79.5,136.5C 78.5479,133.303 77.2145,130.303 75.5,127.5C 75.5,125.5 75.5,123.5 75.5,121.5C 76.1667,121.5 76.5,121.167 76.5,120.5 Z"/></g>
<g><path style="opacity:1" fill="#2eab93" d="M 69.5,127.5 C 69.5,128.5 69.5,129.5 69.5,130.5C 62.9934,129.292 57.6601,131.126 53.5,136C 50.854,136.497 48.1873,136.664 45.5,136.5C 46.8021,134.972 48.4687,133.972 50.5,133.5C 53.2733,133.188 55.6066,132.022 57.5,130C 61.454,128.846 65.454,128.013 69.5,127.5 Z"/></g>
<g><path style="opacity:1" fill="#c7fbf7" d="M 75.5,127.5 C 77.2145,130.303 78.5479,133.303 79.5,136.5C 80.5,136.5 81.5,136.5 82.5,136.5C 82.5,137.167 82.1667,137.5 81.5,137.5C 80.603,138.598 79.7697,138.598 79,137.5C 77.1319,134.395 75.9652,131.062 75.5,127.5 Z"/></g>
<g><path style="opacity:1" fill="#09b294" d="M 104.5,127.5 C 108.182,127.335 111.848,127.501 115.5,128C 116.737,128.232 117.737,128.732 118.5,129.5C 118.47,130.497 118.97,131.164 120,131.5C 124.524,131.939 128.691,133.272 132.5,135.5C 140.942,141.554 144.608,149.887 143.5,160.5C 139.858,163.987 135.858,166.987 131.5,169.5C 126.424,171.52 121.424,173.52 116.5,175.5C 116.167,175.5 115.833,175.5 115.5,175.5C 109.038,177.614 102.371,178.614 95.5,178.5C 93.8333,178.5 92.1667,178.5 90.5,178.5C 91.1331,166.414 90.4665,154.581 88.5,143C 89.6341,141.984 89.3008,141.317 87.5,141C 90.1872,140.463 92.6872,140.963 95,142.5C 95.49,141.207 95.6567,139.873 95.5,138.5C 90.6911,139.312 86.0244,138.979 81.5,137.5C 82.1667,137.5 82.5,137.167 82.5,136.5C 86.6577,137.783 90.8244,137.783 95,136.5C 96.8122,136.493 98.3122,137.16 99.5,138.5C 101.912,135.208 103.579,131.541 104.5,127.5 Z"/></g>
<g><path style="opacity:1" fill="#07ba9b" d="M 69.5,127.5 C 71.5,127.5 73.5,127.5 75.5,127.5C 75.9652,131.062 77.1319,134.395 79,137.5C 79.7697,138.598 80.603,138.598 81.5,137.5C 86.0244,138.979 90.6911,139.312 95.5,138.5C 95.6567,139.873 95.49,141.207 95,142.5C 92.6872,140.963 90.1872,140.463 87.5,141C 89.3008,141.317 89.6341,141.984 88.5,143C 90.4665,154.581 91.1331,166.414 90.5,178.5C 92.1667,178.5 93.8333,178.5 95.5,178.5C 95.5,178.833 95.5,179.167 95.5,179.5C 90.1667,179.5 84.8333,179.5 79.5,179.5C 74.2445,178.31 68.9111,176.977 63.5,175.5C 56.7814,174.161 50.7814,171.494 45.5,167.5C 43.9458,163.877 41.2791,161.377 37.5,160C 38.9895,154.644 39.8229,149.144 40,143.5C 42.4536,141.559 44.287,139.225 45.5,136.5C 48.1873,136.664 50.854,136.497 53.5,136C 57.6601,131.126 62.9934,129.292 69.5,130.5C 69.5,129.5 69.5,128.5 69.5,127.5 Z"/></g>
<g><path style="opacity:1" fill="#2cb093" d="M 45.5,136.5 C 44.287,139.225 42.4536,141.559 40,143.5C 39.8229,149.144 38.9895,154.644 37.5,160C 41.2791,161.377 43.9458,163.877 45.5,167.5C 41.2679,165.6 37.6012,162.933 34.5,159.5C 35.4511,158.081 35.7845,156.415 35.5,154.5C 36.4959,154.586 37.3292,154.252 38,153.5C 36.9749,146.041 39.4749,140.375 45.5,136.5 Z"/></g>
<g><path style="opacity:1" fill="#55968a" d="M 50.5,133.5 C 48.4687,133.972 46.8021,134.972 45.5,136.5C 39.4749,140.375 36.9749,146.041 38,153.5C 37.3292,154.252 36.4959,154.586 35.5,154.5C 36.1814,149.773 37.1814,145.107 38.5,140.5C 40.8333,138.833 42.8333,136.833 44.5,134.5C 46.396,133.534 48.396,133.201 50.5,133.5 Z"/></g>
<g><path style="opacity:1" fill="#d3fcf8" d="M 131.5,169.5 C 131.5,170.5 131.5,171.5 131.5,172.5C 126.545,173.816 121.545,174.816 116.5,175.5C 121.424,173.52 126.424,171.52 131.5,169.5 Z"/></g>
<g><path style="opacity:1" fill="#d2f5f1" d="M 115.5,175.5 C 115.473,177.199 114.806,178.533 113.5,179.5C 107.5,179.5 101.5,179.5 95.5,179.5C 95.5,179.167 95.5,178.833 95.5,178.5C 102.371,178.614 109.038,177.614 115.5,175.5 Z"/></g>
<g><path style="opacity:1" fill="#cdfdfb" d="M 63.5,175.5 C 68.9111,176.977 74.2445,178.31 79.5,179.5C 76.8333,179.5 74.1667,179.5 71.5,179.5C 68.4592,178.755 65.7925,177.422 63.5,175.5 Z"/></g>
</svg>
